<?xml version="1.0" encoding="utf-8"?>
<!-- Generator: Adobe Illustrator 25.2.0, SVG Export Plug-In . SVG Version: 6.00 Build 0)  -->
<svg version="1.1" id="Capa_1" xmlns="http://www.w3.org/2000/svg" xmlns:xlink="http://www.w3.org/1999/xlink" x="0px" y="0px"
	 viewBox="0 0 150 75" enable-background="new 0 0 150 75" xml:space="preserve">
<g>
	<path fill="#FFFFFF" stroke="#000000" stroke-width="0.75" stroke-miterlimit="10" d="M135.3,20V56c0,6.9-5.6,12.5-12.5,12.5H29.2
		c-6.9,0-12.5-5.6-12.5-12.5V20c0-6.9,5.6-12.5,12.5-12.5h93.6C129.7,7.5,135.3,13.1,135.3,20z"/>
	<path fill="#FFFFFF" stroke="#000000" stroke-miterlimit="10" d="M25,53.7c0.1-3.3-0.7-7.7,4-7.7c4.7,0,4.2,4.3,4.2,7.7
		c0,0.6,0,1.2,0,1.8c-0.1,2.8-0.5,5.5-4.1,5.5c-3.3,0-4.2-2.4-4.2-5.4C25,54.9,25,54.3,25,53.7z"/>
</g>
<g>
	<g>
		<path fill="none" stroke="#FF6A0A" stroke-miterlimit="10" d="M97.7,30.5l-1.1,6.7h-1.9l0.6-3.6c0.1-0.4,0.1-0.7,0.2-1.1
			c0.1-0.3,0.1-0.6,0.2-0.7c0,0.1-0.1,0.3-0.2,0.5c-0.2,0.4-0.3,0.8-0.4,1.1l-1.7,3.9h-1.2l-0.5-3.9c0-0.3-0.1-0.7-0.1-1.1
			c0-0.2,0-0.4,0-0.5c-0.1,0.9-0.2,1.7-0.3,2.4l-0.5,3.1h-1.5l1.1-6.7H93l0.4,3c0,0.2,0.1,0.4,0.1,0.5c0-0.1,0.1-0.3,0.2-0.5l1.3-3
			H97.7z"/>
		<path fill="none" stroke="#FF6A0A" stroke-miterlimit="10" d="M101.7,37.3c-0.8,0-1.5-0.3-2.1-0.8s-0.9-1.3-0.9-2.2
			c0-1.1,0.3-2.1,1-2.9s1.5-1.2,2.5-1.2c0.8,0,1.5,0.3,2.1,0.8c0.5,0.5,0.8,1.3,0.8,2.1c0,1.1-0.3,2.1-1,2.9S102.7,37.3,101.7,37.3z
			 M101.7,35.8c0.3,0,0.6-0.1,0.8-0.4c0.2-0.3,0.3-0.7,0.4-1.3c0.1-0.6,0.2-0.9,0.2-1.1c0-0.3-0.1-0.6-0.2-0.8
			c-0.2-0.2-0.4-0.3-0.6-0.3c-0.5,0-0.8,0.3-1.1,1c-0.2,0.7-0.3,1.3-0.3,1.8C100.8,35.4,101.1,35.8,101.7,35.8z"/>
		<path fill="none" stroke="#FF6A0A" stroke-miterlimit="10" d="M106.1,37.2l1.1-6.7h2.8c0.5,0,0.9,0,1.2,0.1
			c0.3,0.1,0.6,0.3,0.8,0.6c0.2,0.3,0.3,0.6,0.3,1c0,0.4-0.1,0.8-0.4,1s-0.6,0.5-1,0.6c0.7,0.3,1.1,0.7,1.1,1.5c0,0.5-0.2,1-0.5,1.4
			s-0.9,0.6-1.8,0.6H106.1z M108.3,35.7h1c0.3,0,0.5-0.1,0.6-0.2c0.1-0.1,0.2-0.3,0.2-0.4c0-0.2-0.1-0.3-0.2-0.5
			c-0.1-0.1-0.3-0.2-0.6-0.2h-0.8L108.3,35.7z M108.8,33h0.8c0.6,0,0.9-0.2,0.9-0.6c0-0.4-0.2-0.5-0.7-0.5H109L108.8,33z"/>
		<path fill="none" stroke="#FF6A0A" stroke-miterlimit="10" d="M116.4,30.5l-1.1,6.7h-1.9l1.1-6.7H116.4z"/>
		<path fill="none" stroke="#FF6A0A" stroke-miterlimit="10" d="M122,35.5l-0.3,1.6h-4.6l1.1-6.7h2l-0.8,5.1H122z"/>
		<path fill="none" stroke="#FF6A0A" stroke-miterlimit="10" d="M128.4,35.6l-0.3,1.5h-4.9l1.1-6.7h4.8l-0.2,1.5H126l-0.2,1h2.4
			l-0.2,1.4h-2.4l-0.2,1.2H128.4z"/>
	</g>
	<g>
		<path d="M101.3,42.8l0.9,1c0.4,0.4,0.6,0.9,0.6,1.3c0,0.4-0.2,0.7-0.5,1s-0.7,0.4-1.3,0.4c-0.5,0-0.9-0.1-1-0.2
			c-0.1-0.1-0.1-0.2-0.2-0.4s-0.1-0.4-0.1-0.5c0-0.1,0-0.1,0.1-0.1c0,0,0.1,0,0.1,0.1c0.1,0.3,0.3,0.5,0.5,0.7s0.5,0.2,0.8,0.2
			c0.3,0,0.6-0.1,0.8-0.3c0.2-0.2,0.3-0.4,0.3-0.7c0-0.1,0-0.3-0.1-0.4s-0.2-0.3-0.4-0.5l-0.9-1c-0.3-0.3-0.5-0.5-0.6-0.7
			c-0.1-0.2-0.2-0.4-0.2-0.7c0-0.3,0.1-0.6,0.3-0.8s0.5-0.3,0.9-0.3c0.2,0,0.5,0.1,0.9,0.2c0.1,0,0.2,0.1,0.2,0.1c0,0,0.1,0,0.1-0.1
			c0,0,0.1,0,0.1,0c0.1,0,0.1,0.1,0.1,0.2v0.1l0.1,0.8c0,0.1,0,0.1-0.1,0.1c-0.1,0-0.1-0.1-0.1-0.2c-0.1-0.3-0.2-0.5-0.5-0.7
			c-0.2-0.2-0.5-0.3-0.8-0.3c-0.2,0-0.4,0.1-0.5,0.2c-0.1,0.1-0.2,0.3-0.2,0.5C100.7,42,100.9,42.4,101.3,42.8z"/>
		<path d="M104.7,45.6l0.5-3.9c0-0.1,0-0.2,0-0.2c0-0.2-0.1-0.4-0.4-0.4c-0.2,0-0.2-0.1-0.2-0.1c0-0.1,0-0.1,0.1-0.1
			c0,0,0.1,0,0.1,0l0.1,0c0.1,0,0.3,0,0.5,0c0.2,0,0.3,0,0.5,0l0.1,0c0.1,0,0.1,0,0.1,0c0.1,0,0.1,0,0.1,0.1c0,0,0,0.1-0.1,0.1
			l-0.1,0c-0.1,0-0.2,0.1-0.3,0.2c0,0.1-0.1,0.2-0.1,0.4l-0.2,1.6c0,0,0,0.1,0,0.1c0,0.1,0,0.1,0.1,0.1c0,0,0.2-0.1,0.5-0.4
			c0.3-0.2,0.6-0.5,0.9-0.7l0.7-0.6c0.2-0.2,0.4-0.3,0.4-0.4c0.1-0.1,0.1-0.1,0.1-0.2c0-0.1-0.1-0.2-0.2-0.2c-0.1,0-0.1,0-0.1-0.1
			c0-0.1,0-0.1,0.1-0.1c0,0,0.1,0,0.1,0c0.2,0,0.4,0,0.6,0c0.2,0,0.4,0,0.5,0l0.1,0l0.1,0c0,0,0,0,0.1,0c0.1,0,0.1,0,0.1,0.1
			c0,0,0,0.1-0.1,0.1c-0.2,0.1-0.4,0.1-0.5,0.2c-0.1,0.1-0.4,0.2-0.7,0.5l-2,1.5c-0.1,0.1-0.1,0.1-0.1,0.1c0,0,0,0.1,0.1,0.1l1.6,2
			c0.2,0.2,0.4,0.4,0.5,0.5c0.1,0.1,0.4,0.2,0.6,0.2c0.1,0,0.2,0.1,0.2,0.1c0,0.1,0,0.1-0.1,0.1c0,0-0.1,0-0.1,0c-0.1,0-0.3,0-0.5,0
			c-0.2,0-0.3,0-0.5,0c0,0-0.1,0-0.1,0c-0.1,0-0.2-0.1-0.3-0.2l-1.8-2.3c-0.1-0.1-0.1-0.1-0.1-0.1c-0.1,0-0.1,0-0.2,0.1
			c0,0.1-0.1,0.1-0.1,0.2l-0.2,1.4c0,0.1,0,0.2,0,0.2c0,0.2,0.1,0.4,0.4,0.4c0.2,0,0.2,0.1,0.2,0.1c0,0.1,0,0.1-0.1,0.1
			c0,0-0.1,0-0.1,0c-0.2,0-0.4,0-0.6,0c-0.2,0-0.3,0-0.5,0l-0.1,0c-0.1,0-0.1,0-0.1,0c-0.1,0-0.1,0-0.1-0.1c0,0,0-0.1,0.1-0.1
			c0.1,0,0.2-0.1,0.3-0.2C104.6,45.9,104.7,45.8,104.7,45.6z"/>
		<path d="M110.8,45.6l0.5-3.9c0-0.1,0-0.2,0-0.2c0-0.2-0.1-0.4-0.4-0.4c-0.2,0-0.2-0.1-0.2-0.1c0-0.1,0-0.1,0.1-0.1
			c0,0,0.1,0,0.1,0l0.1,0c0.1,0,0.3,0,0.5,0c0.2,0,0.3,0,0.5,0l0.1,0c0.1,0,0.1,0,0.1,0c0.1,0,0.1,0,0.1,0.1c0,0,0,0.1-0.1,0.1
			l-0.1,0c-0.1,0-0.2,0.1-0.3,0.2c0,0.1-0.1,0.2-0.1,0.4l-0.5,3.9c0,0.1,0,0.2,0,0.2c0,0.2,0.1,0.4,0.4,0.4c0.2,0,0.2,0.1,0.2,0.1
			c0,0.1,0,0.1-0.1,0.1c0,0-0.1,0-0.1,0c-0.2,0-0.4,0-0.6,0c-0.2,0-0.3,0-0.5,0l-0.1,0c-0.1,0-0.1,0-0.1,0c-0.1,0-0.1,0-0.1-0.1
			c0,0,0-0.1,0.1-0.1c0.2-0.1,0.3-0.2,0.4-0.4L110.8,45.6z"/>
		<path d="M114.1,45.1l0.4-2.5c0-0.2,0-0.4,0-0.6c0-0.2-0.1-0.4-0.2-0.6c-0.1-0.2-0.3-0.3-0.5-0.3c0,0-0.1,0-0.1,0c0,0-0.1,0-0.1,0
			c-0.1,0-0.1,0-0.1-0.1c0,0,0-0.1,0.1-0.1c0.1,0,0.2-0.1,0.3-0.1l0.4,0l0.3,0c0.1,0,0.2,0,0.2,0.1l0.9,1.3c0.3,0.4,0.6,0.9,1,1.5
			l0.9,1.4l0,0.1c0,0,0.1,0.1,0.1,0.1c0,0,0.1-0.1,0.1-0.3c0,0,0-0.1,0-0.2c0.1-0.5,0.2-1.1,0.3-1.9s0.1-1.2,0.1-1.5
			c0-0.3-0.1-0.4-0.4-0.5c-0.1,0-0.2-0.1-0.2-0.1c0-0.1,0-0.1,0.1-0.1c0,0,0.1,0,0.1,0c0.1,0,0.3,0,0.5,0c0.2,0,0.3,0,0.4,0l0.1,0
			c0.1,0,0.1,0,0.1,0c0.1,0,0.2,0,0.2,0.1c0,0,0,0.1-0.1,0.1c-0.2,0-0.3,0.1-0.3,0.2c-0.1,0.1-0.1,0.4-0.2,0.9
			c-0.1,1.3-0.3,2.5-0.5,3.6c-0.1,0.3-0.1,0.5-0.1,0.5c0,0-0.1,0.1-0.1,0.1c0,0-0.1,0-0.1-0.1l-0.9-1.5l-0.5-0.8
			c-0.3-0.5-0.5-0.8-0.6-0.9l-0.6-0.9c0,0,0-0.1-0.1-0.1c0-0.1-0.1-0.1-0.1-0.1c0,0-0.1,0.1-0.1,0.2l-0.4,3c0,0.2,0,0.3,0,0.4
			c0,0.3,0.1,0.4,0.4,0.4c0.1,0,0.2,0.1,0.2,0.1c0,0.1-0.1,0.1-0.2,0.1c0,0-0.1,0-0.1,0c-0.2,0-0.3,0-0.5,0c-0.2,0-0.3,0-0.4,0
			l-0.1,0c-0.1,0-0.1,0-0.1,0c-0.1,0-0.1,0-0.1-0.1c0,0,0.1-0.1,0.2-0.1c0.1,0,0.3-0.1,0.3-0.2s0.1-0.2,0.1-0.5L114.1,45.1z"/>
	</g>
</g>
<g>
	<path d="M52.5,18.5c0.5,0.7,1,1.4,0.8,2.4c0,0.1,0,0.2-0.1,0.4c0,0.3,0,0.3,0.3,0.3c0.2,0,0.3-0.1,0.3-0.3c0-0.1,0-0.1,0-0.2
		c0-0.3,0.1-0.5,0.3-0.7c0.6-0.6,0.6-0.8-0.1-1.3c0,0,0,0,0-0.1c0.3-0.2,0.6-0.2,0.9,0c0.2,0.2,0.4,0.5,0.3,0.8
		c0,0.1-0.1,0.1-0.1,0.2c0,0.1,0,0.1,0,0.2c0.1,0.2,0.6,0.2,0.8,0c0,0,0.1-0.1,0.1-0.1c0.5-0.3,0.7-0.7,0.9-1.2
		c0.8-1.7,1.6-3.3,2.7-4.8c0.9-1.2,1.9-2.3,3.2-3.2c0.3-0.2,0.6-0.4,1-0.5c0.2,0,0.4,0,0.5,0.2c0.1,0.2,0.1,0.4,0,0.5
		c-0.3,0.6-0.6,1.1-1,1.7c-0.5,0.9-1,1.8-1.2,2.8c-0.1,0.5-0.1,0.9-0.1,1.4c1-0.2,2-0.3,3-0.2c1,0,2,0.1,2.9,0.4
		c0.1,0,0.2,0,0.2-0.1c1.2-1.3,2.5-2.6,3.3-4.2c0.4-0.8,0.9-1.6,1.4-2.4c0.2-0.3,0.5-0.4,0.8-0.2c0.7,0.3,1.1,0.9,1,1.6
		c0,0.2-0.1,0.5-0.2,0.7c-0.8,1.7-1.4,3.4-1.9,5.2c-0.2,0.7,0,1.4,0.3,2c0.1,0.1,0.2,0.3,0.3,0.4c1.7,1.3,3.1,2.9,4.2,4.8
		c0,0,0.1,0.1,0.1,0.2c0.1-2.2,0.8-4.1,2.5-5.5c0,0,0.1,0,0.1,0c0,0.1,0,0.1-0.1,0.2c-0.6,0.8-0.9,1.7-1,2.7
		c-0.2,1.8,0.3,3.4,1.3,4.8c0.6,0.9,1.3,1.8,1.9,2.7c0.8,1.1,1.4,2.4,1.5,3.7c0.4,2.7-0.2,5.2-2.1,7.4c-0.7,0.8-1.6,1.6-2.4,2.4
		c-0.7,0.7-1.5,1.4-2.1,2.3c-0.8,1.1-1.3,2.3-1.2,3.6c0,0.5,0.1,1,0.3,1.4c0.3,0.7,0.5,1.4,0.4,2.1c-0.1,0.9-0.5,1.7-1.1,2.3
		c-0.7,0.8-1.7,1.4-2.6,1.8c-1.6,0.8-3.3,1-5.1,0.9c-0.9-0.1-1.9-0.1-2.8-0.1c-3,0.1-5.3,1.5-6.9,4c-0.5,0.8-0.7,1.6-0.9,2.5
		c0,0.1,0,0.1,0,0.2c0,0,0,0-0.1,0.1c0-0.1-0.1-0.2-0.1-0.3c-0.1-0.7-0.4-1.3-0.7-1.9c-0.5-1.3-1.5-2.2-2.6-3
		c-0.9-0.7-1.8-1.4-2.7-2.2c-1.1-1-1.9-2.3-2.3-3.8c-0.3-1.2-0.2-2.3,0.3-3.4c0-0.1,0-0.2-0.1-0.2c-0.9-0.8-1.1-1.9-0.4-2.9
		c0.2-0.3,0.4-0.5,0.6-0.8c0.3-0.4,0.5-0.9,0.7-1.3c0.1-0.3,0.1-0.7,0-1c0.2-0.1,0.4,0,0.6,0.2c0.3,0.5,0.4,1.1,0.4,1.7
		c0,0.3-0.1,0.5-0.1,0.8c0,0.2,0,0.5,0.3,0.6c0.2,0.1,0.4,0.1,0.6-0.1c1-0.8,1.8-1.9,1.7-3.3c-0.1-1-0.9-1.8-1.8-1.8
		c-0.1,0-0.1-0.1-0.2-0.1c0.1-0.1,0.1-0.1,0.2-0.2c0.3-0.2,0.7-0.1,1,0c0.5,0.2,0.9,0.5,1.2,0.9c0.1,0.1,0.1,0.1,0.2,0.2
		c0-0.6,0.4-0.8,0.7-1c0.6-0.4,0.6-1,0.5-1.6c-0.1-0.4-0.3-0.7-0.5-1.1c0-0.1,0-0.1-0.1-0.2c0.1,0,0.1,0,0.2,0
		c1,0.4,1.6,1.5,1.1,2.6c-0.1,0.1-0.1,0.3-0.2,0.4c-0.1,0.2,0,0.3,0.2,0.3c0.2,0.1,0.3,0,0.3-0.2c0.1-0.2,0.1-0.4,0.2-0.6
		c0.2-0.5,0.4-0.9,0.9-1.1c0,0,0.1,0,0.1,0c0.1,0,0.1,0,0.2,0.1c0,0.1-0.1,0.1-0.1,0.2c-0.5,0.4-0.6,1-0.2,1.5
		c0-0.1,0.1-0.1,0.1-0.2c1.1-1.3,2.1-2.7,3-4.2c0-0.1,0-0.2,0-0.3c-0.2-0.8-0.3-1.6-0.1-2.5c0-0.1,0.1-0.2,0.2-0.2
		c0.1,0.1,0.1,0.2,0.2,0.2c0.1,0.4,0.3,0.9,0.6,1.2c0.4-0.6,0.6-1.9,0.4-2.5c-0.5,0.3-0.9,0.6-1.4,0.9c-0.9,0.7-1.5,1.5-1.9,2.5
		c-0.2,0.3-0.4,0.6-0.7,0.7c-0.7,0.2-1.5,0.5-2.2,0.6c-0.3,0.1-0.6-0.1-1-0.1c-0.1,0-0.2-0.1-0.3-0.1c-0.6-0.2-1-0.6-1-1.3
		c0-0.2-0.1-0.4-0.4-0.5c-0.3-0.1-0.4-0.4-0.6-0.7c-0.5-0.9-0.7-2-1-2.9c-0.2-0.5-0.1-0.6,0.3-0.9c0.2-0.1,0.3-0.3,0.2-0.6
		c-0.2-0.5,0.2-0.9,0.8-1c0.1,0,0.2-0.1,0.2-0.2c0-0.1,0.1-0.2,0.1-0.3c0.2-0.4,0.2-0.8-0.1-1.2c-0.2-0.3-0.4-0.6-0.6-0.9
		c-0.2-0.3-0.3-0.6-0.4-0.9c-0.1-0.4,0-0.9,0.2-1.3c0.2-0.3,0.4-0.7,0.5-1c0.3-0.6,0.4-1.2-0.1-1.7c-0.3-0.4-0.4-0.9-0.2-1.4
		c0.1-0.2,0.2-0.5,0.4-0.7c0.4-0.7,0.4-1.4,0.1-2.1C52.5,18.7,52.4,18.6,52.5,18.5C52.4,18.6,52.4,18.5,52.5,18.5z M54.8,39.5
		c0,0.1,0,0.2,0.1,0.3c0.2,0.4,0.3,0.8,0.3,1.2c-0.1,0.6-0.3,1-0.8,1.3c-0.1,0.1-0.3,0.2-0.3,0.3c-0.1,0.5,0.1,0.9,0.4,1.2
		c0.2-0.5,0.3-1,0.5-1.4c0.3-0.7,0.5-1.3,0.4-2c0,0.2,0.1,0.4,0.1,0.7c-0.1,0.5-0.3,1-0.4,1.5c-0.1,0.4-0.3,0.8-0.3,1.3
		c-0.1,0.3,0.1,0.5,0.4,0.3c0.1,0,0.1-0.1,0.2-0.1c0.7-0.4,1.3-1,1.8-1.6c-0.4-0.6-0.4-0.7-0.3-1.3c-0.1,0.2-0.2,0.5-0.3,0.7
		c-0.1,0.2-0.1,0.4-0.2,0.6c-0.1,0.3-0.4,0.3-0.6,0.3c-0.2-0.1-0.3-0.3-0.3-0.6c0.1-0.2,0.1-0.4,0.2-0.6c0.3-0.7,0.1-1.5-0.6-2
		c0,0-0.1,0-0.2-0.1C54.8,39.5,54.8,39.5,54.8,39.5z M67.6,25.3c0.3-0.2,0.3-0.5,0.1-0.9c-0.3-0.6,0.2-1,0.3-1.5c0,0.1,0,0.3,0,0.4
		c0.1,0.3,0.1,0.7,0.3,1c0.2,0.4,0.2,0.8,0,1.2c-0.1,0.2-0.2,0.3-0.2,0.5c-0.1,0.3-0.2,0.7-0.3,1.1c0,0,0,0,0.1,0
		c0.2-0.2,0.4-0.5,0.6-0.6c0,0.2-0.1,0.5,0,0.7c0,0.2,0.1,0.5,0.2,0.7c0.2,0.6,0,1-0.5,1.3c-0.2,0.1-0.4,0.2-0.6,0.3
		c-0.2,0.1-0.4,0.2-0.6,0.3c-0.1,0.1-0.2,0.2-0.2,0.3c0,0.4-0.2,0.7-0.6,0.8c-0.3,0.1-0.5,0.1-0.8,0.1c-0.3,0-0.6,0-0.9,0
		c-0.3,0-0.5,0.1-0.7,0.4c-0.4,0.7-0.8,0.9-1.6,0.8c-0.7-0.1-1.4,0-2,0.4c-0.1,0.1-0.2,0.2-0.3,0.4c-0.2,0.4-0.4,0.9-0.6,1.3
		c-0.5,0.9-1.2,1.7-2.2,2.1c-0.4,0.2-0.9,0.4-1.3,0.6c-0.4,0.2-0.7,0.2-1.1,0.1c-0.3-0.1-0.5-0.2-0.8-0.3c-0.1-0.1-0.2,0-0.2,0.1
		c0,0.3,0,0.5,0.2,0.7c0.5,0.3,1,0.6,1.6,0.5c0.7-0.2,1.4-0.4,2.1-0.6c0.3-0.1,0.4-0.3,0.5-0.5c0.1-0.3,0.3-0.5,0.4-0.8
		c0.9-1.5,2.2-2.4,3.8-3.1c1.3-0.6,2.7-0.9,4.1-1.1c0.6-0.1,1.2-0.3,1.6-0.8c0.4-0.6,0.9-1.1,1.4-1.7c0.2-0.2,0.3-0.4,0.5-0.6
		c0.3-0.5,0.1-1-0.4-1.2c0,0.1,0,0.2,0,0.3c0,0,0,0,0,0c-0.2-0.8-0.4-1.5-0.5-2.3c0.1,0,0.1,0.1,0.1,0.1c0.1,0.2,0.2,0.4,0.4,0.7
		c0.2,0.4,0.5,0.7,0.9,0.9c0.3,0.2,0.4,0.4,0.4,0.8c0,0.5-0.2,1-0.4,1.4c-0.2,0.4-0.4,0.7-0.6,1.1c-0.9,1.3-1,2.8-0.9,4.4
		c0.1,0.6,0,1.2,0,1.9c0,0.1,0,0.2,0.1,0.3c0.2,0.2,0.5,0.5,0.8,0.7c0.3,0.2,0.7,0.2,1,0.1c0.8-0.3,1.5-0.8,2-1.5
		c0.1-0.1,0.1-0.3,0.2-0.5c0.1-0.5,0-1-0.2-1.4c-0.2-0.4-0.4-0.8-0.6-1.2c-0.6-1.2-0.9-2.5-0.5-3.9c0.2-0.9,0.7-1.6,1.5-2.1
		c0.1-0.1,0.3-0.1,0.4-0.1c-0.6,0.7-0.7,1.5-0.6,2.3c0.2,1,0.7,1.7,1.4,2.3c0.3,0.3,0.7,0.5,1,0.8c1.3,1.1,2,2.4,2.2,4.1
		c0,0.2,0,0.5,0,0.7c0.6-1.1,1-2.2,1.3-3.4c0.3-1.4,0.2-2.8-0.1-4.2c-0.8-3.7-2.7-6.6-5.6-9c-0.4-0.4-1-0.1-1.2,0.4
		c0,0.2-0.1,0.4-0.1,0.6c0,0.1,0,0.1-0.1,0.2c0,0,0,0-0.1,0c0-0.1,0-0.2,0-0.4c0.2-0.9,0.3-1.8,0.5-2.7C72.3,17,73,15,73.9,13
		c0.3-0.7,0.1-1.3-0.2-1.9c0-0.1-0.1-0.1-0.2-0.2c-0.2-0.2-0.5-0.1-0.6,0.1c-0.6,1-1.1,2.1-1.7,3.2c-0.3,0.5-0.5,0.9-0.9,1.4
		c-1.2,1.5-2.7,2.6-4.3,3.7c0,0,0,0-0.1,0c0.1-0.1,0.1-0.1,0.2-0.1c0.3-0.2,0.6-0.4,0.8-0.7c0.2-0.2,0.2-0.4,0-0.6
		c-0.2-0.1-0.4-0.2-0.6-0.2c-1.1-0.2-2.2-0.2-3.3-0.2c-1,0-2,0.2-3,0.6c0,0-0.1,0-0.1,0c0.1-0.1,0.2-0.1,0.2-0.2
		c0.3-0.2,0.6-0.3,0.8-0.5c0.2-0.2,0.4-0.4,0.5-0.7c0.3-1.3,0.7-2.6,1.5-3.7c0.2-0.3,0.4-0.6,0.6-0.9c0.1-0.2,0.2-0.4,0.3-0.6
		c0.1-0.2,0-0.3-0.2-0.3c-0.2-0.1-0.5,0-0.7,0.1c-1,0.7-1.9,1.5-2.6,2.5C59,15.2,58,17.1,57.1,19c-0.1,0.2-0.2,0.4-0.3,0.6
		c0.8-0.5,1.5-1.2,2.5-1.2c-0.1,0-0.1,0.1-0.2,0.1c-0.8,0.4-1.6,0.9-2.3,1.5c-0.5,0.4-0.9,0.8-1.1,1.4c0,0,0,0-0.1,0
		c0-0.1-0.1-0.1-0.1-0.2c-0.1-0.2-0.2-0.2-0.4-0.1c-0.4,0.2-0.8,0.4-1.2,0.7c-0.2,0.1-0.3,0.3-0.4,0.5c-0.1,0.6,0,1.1,0.5,1.4
		c0.5,0.3,0.8,0.8,1,1.4c0,0.1,0.1,0.2,0.1,0.3c0.1,0.2,0.2,0.4,0.4,0.5c0.2,0.1,0.5,0.3,0.8,0.1c0,0,0,0,0,0
		c-0.1,0.3-0.2,0.4-0.5,0.2c-0.2-0.1-0.4-0.2-0.6-0.1c-0.4,0.1-0.7,0.1-1.1-0.2c-0.2-0.2-0.4-0.1-0.5,0.1c-0.3,0.5-0.6,1-0.2,1.5
		c0,0.1,0.1,0.1,0.1,0.2c0,0.2,0,0.4-0.1,0.5c-0.4,0.5-0.5,1.1-0.6,1.7c-0.1,0.7,0,1.4,0,2.1c0,0,0,0-0.1-0.1
		c-0.1-0.2-0.1-0.4-0.2-0.7c0-0.3-0.2-0.5-0.4-0.7c-0.2-0.1-0.5-0.1-0.6,0.1c-0.1,0.2,0,0.3,0.2,0.5c0.1,0.1,0.2,0.1,0.2,0.2
		c0.2,0.3,0.3,0.7,0.3,1.1c0,0.1,0,0.2-0.1,0.3c-0.2-0.5-0.3-0.7-0.6-0.9c-0.4,0.3-0.6,0.7-0.4,1.2c0.2,0.7,0.4,1.4,0.5,2
		c0.1,0.4,0.2,0.7,0.6,0.8c0.7,0.3,1.4,0.6,2.1,0.9c0.3,0.1,0.5,0.1,0.8,0c0.5-0.2,1-0.4,1.5-0.6c1-0.4,1.7-1.1,2.1-2.1
		c0.1-0.2,0.1-0.4,0.2-0.6c0.3-0.7,0.7-1.2,1.2-1.6c0.9-0.6,1.8-1.2,2.7-1.8c0.3-0.2,0.5-0.5,0.5-0.9c0-0.5,0.2-0.9,0.6-1.3
		c0.4-0.4,0.6-0.8,0.4-1.3c0-0.1,0-0.3,0-0.4c0,0,0.1,0,0.1,0c0.1,0.2,0.3,0.4,0.4,0.5c0.4,0.5,0.2,1,0.1,1.5
		c0.4,0.1,0.8-0.1,0.8-0.5c0-0.2,0-0.4,0-0.6c-0.1-0.3,0-0.6,0.3-0.8c0.1-0.1,0.3-0.2,0.4-0.3C67,25.7,67.3,25.5,67.6,25.3
		L67.6,25.3z M56.2,61.4C56.2,61.4,56.2,61.4,56.2,61.4C56.2,61.3,56.2,61.3,56.2,61.4c-0.3-1.7,0.1-3.1,1.2-4.4
		c0.5-0.5,0.8-1.1,1.2-1.6c1.1-1.7,2.2-3.4,3.2-5.1c0-0.1,0.1-0.1,0.1-0.2c-0.4-0.4-0.8-0.9-1.2-1.3c-1.3-1.6-1.4-3.3-0.6-5.1
		c0.4-0.8,0.9-1.5,1.5-2.2c0.1-0.2,0.3-0.3,0.4-0.4c0.1-0.1,0.2-0.1,0.2-0.1c0,0.1,0,0.2,0,0.2c-0.1,0.2-0.2,0.3-0.2,0.5
		c-0.2,0.4-0.4,0.8-0.5,1.3c-0.2,1.1,0,2.1,0.6,3c0.3,0.4,0.6,0.6,1.1,0.7c0.2,0,0.4,0,0.7,0c0.2,0,0.3-0.1,0.4-0.2
		c0.2-0.2,0.3-0.5,0.5-0.7c0.8-1.1,1.5-2.3,2-3.6c0-0.1,0-0.2,0-0.3c-0.5-0.9-1.2-1.5-2.2-1.8c-0.5-0.1-1-0.2-1.5-0.3
		c-1-0.2-1.9-0.6-2.5-1.5c0,0,0,0,0,0c-0.1,0.1-0.1,0.2-0.2,0.3c-0.7,1-1.5,2-2.3,3c-0.9,1.1-1.7,2.2-2.8,3c0,0-0.1,0.1-0.1,0.2
		c-0.3,1.2-0.6,2.4-0.9,3.6c-0.6,2.2-0.7,4.5-0.3,6.8c0.3,1.7,0.9,3.3,1.6,4.9C55.8,60.4,56,60.9,56.2,61.4z M60.4,36
		c0,0.1,0,0.1,0,0.1c0.3,1,1,1.7,2,2c0.8,0.2,1.6,0.3,2.4,0.4c0.8,0.1,1.6,0.4,2.2,0.9c1.1,1,2,2.3,2.4,3.8c0.4,1.5,0.2,2.9-0.9,4.1
		c-0.1,0.1-0.2,0.3-0.3,0.5c-0.2,0.5-0.1,0.9,0.3,1.2c0.1,0.1,0.3,0.2,0.5,0.3c0.4,0.1,0.8,0.3,1.2,0.4c1.2,0.4,2.1,1.3,2.4,2.5
		c0,0.1,0.1,0.3,0.1,0.4c0.3-0.2,0.5-0.5,0.6-0.9c0.1-0.6,0-1.1-0.2-1.6c-0.2-0.5-0.5-1-0.7-1.5c-0.4-1.1-0.3-2.3-0.1-3.4
		c0.2-0.9,0.5-1.8,1-2.6c0.3-0.6,0.6-1.3,1-1.9c0.8-1.2,0.9-2.5,0.7-3.9c-0.2-1.2-0.6-2.3-1.4-3.3c-0.4-0.6-0.9-1.1-1.3-1.6
		c-0.6-0.7-0.8-1.5-0.7-2.3c0.1-0.4,0.2-0.7,0.2-1.1c0,0.1-0.1,0.1-0.1,0.2c-0.6,1-0.8,2.1-0.4,3.3c0.4,1,0.8,2,1.3,3
		c0.3,0.7,0.7,1.4,0.8,2.3c0.1,0.6,0.1,1.2-0.4,1.7c-0.6,0.7-1.4,0.9-2.3,0.7c-1.1-0.3-2-0.9-2.6-2c-0.4-0.7-1-1.1-1.8-1.2
		c-0.6-0.1-1.2,0-1.8,0.3c-0.5,0.2-1,0.5-1.5,0.6c-1.1,0.4-2.1,0-2.7-1C60.5,36.2,60.5,36.1,60.4,36z M57,62.4c0-0.1,0-0.3,0.1-0.4
		c0.2-1.8,1.1-3.1,2.8-4c1.9-0.9,3.9-1.4,6-1.6c1.2-0.1,2.3-0.2,3.5-0.3c1.1-0.1,2.1-0.4,3-1c1.5-0.9,2.3-2.3,2-4.1
		c-0.1-0.7-0.3-1.4-0.4-2.1c-0.2-0.9-0.3-1.8,0-2.7c0.3-1.3,1.1-2.3,2.1-3.1c0.3-0.3,0.7-0.5,1-0.8c-0.1,0-0.1,0-0.1,0
		c-1.1,0.5-2.1,1.1-2.9,2c-1.1,1.5-1.6,3.1-0.9,4.9c0.2,0.5,0.3,0.9,0.5,1.4c0.2,0.7,0.1,1.3-0.4,1.8c-0.4,0.5-1.1,0.5-1.6,0.1
		c-0.2-0.2-0.4-0.5-0.6-0.8c-0.2-0.3-0.4-0.6-0.6-0.9c-0.6-0.7-1.3-0.9-2.2-0.9c0.4,0.3,0.7,0.6,0.8,1c0.4,1,0.1,2.1-0.8,2.8
		c-0.8,0.8-1.9,1.1-3,1.1c-1,0.1-2,0-3,0.1c-1.1,0.1-2.1,0.3-3,1c-0.6,0.4-1.1,0.9-1.6,1.4c-0.8,0.7-1.1,1.7-1.1,2.7
		C56.4,61.1,56.7,61.7,57,62.4z M76.4,38.9c0-0.1,0.1-0.1,0.1-0.2c0.1-0.3,0.3-0.6,0.3-1c0.1-1.9-0.4-3.5-1.9-4.7
		c-0.4-0.3-0.7-0.6-1.1-0.9c-0.7-0.6-1.2-1.3-1.4-2.3c-0.1-0.4-0.2-0.7-0.2-1.1c-0.2,0.5-0.2,1.1-0.1,1.7c0.1,0.6,0.5,1.1,0.9,1.6
		c0.5,0.6,1,1.1,1.4,1.7c1.1,1.7,1.4,3.5,1.1,5.5c-0.1,0.6-0.5,1.1-0.8,1.6c-0.7,1.2-1.4,2.5-1.8,3.8c-0.1,0.3-0.2,0.6-0.2,0.9
		c0.1-0.1,0.1-0.1,0.1-0.2c0.4-1,1-2,1.7-2.8c0.8-0.9,1.7-1.5,2.7-2.1c0.7-0.4,1.5-0.8,2.2-1.3c1.3-0.9,1.9-2.2,1.9-3.8
		c0-1.1-0.2-2.2-0.4-3.3c-0.3-1.4-0.7-2.7-1.4-3.9c-0.2-0.3-0.3-0.5-0.4-0.8c-0.7-1.4-0.9-2.9-0.7-4.4c0.1-0.5,0.2-0.9,0.3-1.4
		c0,0,0,0,0,0c0,0-0.1,0.1-0.1,0.1c-0.6,1.1-0.8,2.3-0.8,3.6c0,0.3,0.1,0.6,0.2,0.8c0.7,1.5,1.2,3.1,1.3,4.7
		c0.2,2.2-0.1,4.4-1.3,6.3C77.5,38,76.9,38.4,76.4,38.9z M75.2,48.8c0.1-0.6,0.2-1.2,0.5-1.8c0.6-1.2,1.4-2.3,2.4-3.2
		c0.8-0.8,1.6-1.5,2.4-2.3c2.3-2.4,3.1-5.2,2.4-8.4c-0.3-1.4-0.9-2.6-1.8-3.7c-0.6-0.8-1.2-1.6-1.7-2.4c-0.8-1.3-1.1-2.7-0.9-4.2
		c0-0.4,0.1-0.8,0.2-1.1c-0.5,1.5-0.6,3-0.2,4.5c0.2,0.9,0.7,1.6,1.1,2.4c0.3,0.7,0.7,1.4,0.9,2.1c0.4,1.1,0.6,2.3,0.7,3.5
		c0.1,0.9,0.1,1.8-0.1,2.6C81,38,80.2,39,79,39.7c-0.8,0.5-1.5,0.9-2.3,1.3c-1.7,0.9-2.9,2.3-3.7,4c0,0.1-0.1,0.1-0.1,0.2
		c0.7-1.1,1.6-2,2.7-2.6c0.8-0.5,1.7-0.9,2.7-1c0.1,0,0.2,0,0.2,0.1c0,0.1,0,0.2,0,0.2c0,0.1-0.1,0.1-0.2,0.2
		c-0.5,0.4-0.9,0.7-1.4,1.1c-0.8,0.6-1.3,1.4-1.7,2.3C74.8,46.6,74.8,47.7,75.2,48.8z M72.5,52.7C72.5,52.7,72.5,52.7,72.5,52.7
		c0-0.1,0-0.1,0-0.1c-0.2-1.2-0.8-2.1-2-2.6c-0.3-0.1-0.6-0.2-0.9-0.3c-0.4-0.2-0.8-0.3-1.1-0.5c-0.6-0.5-0.7-1.1-0.2-1.7
		c0.1-0.1,0.1-0.2,0.2-0.3c0.9-1,1.1-2.2,0.9-3.5c-0.3-1.6-1.2-2.9-2.4-4c-0.4-0.4-0.9-0.6-1.5-0.7c-0.8-0.2-1.5-0.3-2.3-0.4
		c-0.8-0.1-1.5-0.3-2-0.9c-0.3-0.3-0.5-0.7-0.7-1c0.1,0.5,0.3,1.1,0.6,1.6c0.4,0.6,0.9,1,1.6,1.2c0.5,0.1,1.1,0.2,1.6,0.3
		c1.5,0.2,2.5,1.1,3.2,2.3c0.7,1.3,0.5,3.4-1,4.6c-0.7,0.6-1.5,0.9-2.5,0.8c-0.1,0-0.1,0-0.2,0c0.2,0.1,0.5,0.3,0.7,0.4
		c1.1,0.4,1.7,1.5,1.4,2.7c-0.1,0.2-0.1,0.5,0,0.8c0,0.3,0.2,0.5,0.4,0.6c0.3,0.2,0.8,0.2,1.1-0.1c0.3-0.3,0.3-0.8,0.1-1.2
		c-0.1-0.1-0.1-0.2-0.2-0.3c1.2-0.5,2.4-0.2,3.3,0.9c0.3,0.3,0.5,0.7,0.7,1c0.2,0.2,0.3,0.4,0.5,0.6C71.9,52.7,72.2,52.8,72.5,52.7z
		 M61.4,42.3c-0.6,0.8-1.1,1.6-1.3,2.5c-0.2,0.6-0.2,1.2-0.1,1.8c0.3,1.3,1.1,2.3,2,3.1c0.6,0.5,1.1,1,1.5,1.7
		c0.6,1.1,0.4,2.4-0.6,3.2c-0.1,0.1-0.1,0.1-0.2,0.2c0,0,0,0,0,0.1c0.9,0,1.7,0,2.6-0.1c0.9-0.1,1.7-0.3,2.4-0.9
		c0.6-0.5,0.9-1,1-1.8c0-0.7-0.2-1.3-0.8-1.6c0,0.2,0.1,0.5,0.1,0.7c-0.1,0.6-0.7,1.1-1.4,1.1c-0.7-0.1-1.2-0.6-1.1-1.3
		c0-0.2,0.1-0.4,0.2-0.7c0.3-0.7,0-1.5-0.6-1.9c-0.2-0.1-0.5-0.3-0.7-0.4c-0.7-0.3-1.3-0.7-1.8-1.3c-0.8-0.9-1.2-1.9-1.2-3.1
		C61.2,43.2,61.3,42.8,61.4,42.3z M57,62.7C57,62.6,57.1,62.6,57,62.7c0.1-0.1,0.1-0.2,0.2-0.3c0.4-1,1-1.9,1.9-2.5
		c0.3-0.2,0.5-0.4,0.8-0.6c1.3-1,2.8-1.6,4.4-1.8c1-0.1,2.1,0,3.1,0c1.6,0.1,3.1,0,4.6-0.6c1-0.4,2-0.9,2.8-1.7c1.1-1,1.5-2.3,1-3.7
		c-0.2-0.6-0.4-1.2-0.7-1.8c-0.5-1.2-0.6-2.5-0.3-3.8c0.3-1.2,1.1-2.1,2-2.9c0.1-0.1,0.3-0.3,0.5-0.4c-0.1,0-0.1,0-0.1,0
		c-0.8,0.5-1.5,1-2,1.7c-1,1.2-1.5,2.5-1.2,4.1c0.2,0.8,0.4,1.6,0.5,2.5c0.3,1.7-0.2,3.1-1.6,4.2c-0.4,0.3-0.9,0.6-1.4,0.8
		c-1.3,0.6-2.8,0.7-4.2,0.7c-1.5,0.1-3,0.2-4.5,0.6c-1.2,0.3-2.3,0.7-3.4,1.3C57.7,59.4,57.2,60.9,57,62.7z M53.1,42.7
		c0.6,1,0.8,2,0.5,3.1c-0.2,0.7-0.6,1.3-1,1.9c-0.4,0.6-0.9,1.3-1.3,1.9c-0.4,0.6-0.6,1.3-0.7,2c-0.1,1,0.1,1.9,0.5,2.7
		c1,2.1,2.2,4,3.7,5.7c0,0,0.1,0,0.1,0.1c0,0,0-0.1,0-0.1c-0.7-1.6-1.2-3.3-1.6-5c0-0.1-0.1-0.1-0.1-0.1c-0.8-0.2-1.2-0.8-1.3-1.6
		c-0.2-1.3,0.1-2.5,0.9-3.7c0.4-0.5,0.7-1.1,0.9-1.6c0.5-1,0.7-2.1,0.5-3.2C54,44,53.7,43.3,53.1,42.7z M52.8,42.6
		C52.8,42.6,52.9,42.7,52.8,42.6c0.5,0.8,0.6,1.6,0.4,2.4c-0.3,1.1-0.9,2-1.7,2.7c-0.4,0.4-0.8,0.7-1.2,1.1
		c-1.2,1.1-1.6,2.6-1.4,4.2c0.2,1.5,0.9,2.8,2,3.9c0.8,0.9,1.8,1.6,2.7,2.3c0,0,0.1,0.1,0.1,0.1c-0.8-1.2-1.6-2.3-2.3-3.5
		c-0.3-0.5-0.6-1-0.8-1.6C50,52.5,50.1,51,51,49.5c0.2-0.3,0.4-0.7,0.7-1c0.4-0.6,0.9-1.2,1.3-1.9c0.5-0.7,0.7-1.6,0.5-2.4
		C53.4,43.6,53.2,43.1,52.8,42.6z M68.1,36.8c0.1-0.8,0-1.5-0.2-2.3c-0.1-0.4-0.3-0.9-0.6-1.2C67.2,33.2,67,33,66.8,33
		c-1-0.1-1.9,0.1-2.6,0.8c-0.4,0.3-0.7,0.6-1.1,0.9c-0.6,0.6-1,1.3-1.5,2c0.5,0.3,1,0.4,1.6,0.2c0.6-0.2,1.2-0.4,1.8-0.7
		c0.6-0.2,1.2-0.3,1.8-0.2C67.2,36.2,67.6,36.4,68.1,36.8z M58.9,55.7c0.6-0.2,1.2-0.4,1.8-0.6c0.1,0,0.1-0.1,0.2-0.1
		c0.7-1,1.5-2,2.4-2.9c0,0,0.1-0.1,0.1-0.2c-0.2-0.6-0.6-1-1.1-1.4C61.1,52.2,60,53.9,58.9,55.7z M68,23.7
		C68,23.7,67.9,23.7,68,23.7c0,0.2,0,0.5,0.1,0.7c0.1,0.4,0.1,0.7-0.1,1.1c-0.2,0.3-0.3,0.5-0.5,0.8c-0.4,0.6-0.5,1.1-0.2,1.8
		c0,0,0,0.1,0,0.2c0.2,0.6,0,0.8-0.6,1c-0.4,0.1-0.7,0.3-0.8,0.7c-0.1,0.3-0.3,0.4-0.6,0.5c-0.1,0-0.3,0-0.5-0.1
		c-0.2,0-0.3,0-0.5,0.1c-0.2,0.2-0.4,0.4-0.6,0.5c-0.2,0.1-0.3,0.2-0.4,0.4c-0.1,0.3-0.4,0.5-0.7,0.6c-0.2,0-0.5,0.1-0.8,0.1
		c-0.3,0-0.7,0.1-0.9,0.3c0.4,0,0.8,0,1.2,0c0.1,0,0.2,0,0.4,0c0.5,0,0.9-0.2,1.1-0.7c0.2-0.5,0.5-0.8,1-1c0.1,0,0.2,0,0.3,0
		c0.3,0,0.5,0.1,0.8,0.1c0.4,0,0.5-0.2,0.4-0.6c0-0.2,0-0.4,0.2-0.6c0.2-0.2,0.5-0.2,0.8-0.1c-0.3,0.1-0.4,0.2-0.3,0.5
		c0.2-0.1,0.4-0.2,0.6-0.4c0.2-0.1,0.5-0.3,0.7-0.4c0.5-0.3,0.6-0.7,0.4-1.2c-0.1-0.4-0.3-0.8-0.2-1.2c-0.1,0.2-0.3,0.4-0.3,0.6
		c-0.1,0.3,0.3,0.3,0.4,0.5c-0.3,0-0.6-0.2-0.6-0.5c0-0.2,0-0.4,0-0.6c0.1-0.4,0.3-0.8,0.5-1.2c0.1-0.3,0.3-0.5,0.1-0.9
		C68.2,24.3,68.1,24,68,23.7z M64.5,30c0.2,0,0.3,0,0.4,0.1c0.5,0.1,0.7,0,0.9-0.5c0.1-0.2,0.3-0.4,0.5-0.5c0.1-0.1,0.3-0.1,0.5-0.2
		c0.3-0.1,0.5-0.3,0.4-0.6c0-0.1,0-0.2-0.1-0.3c-0.3-0.6-0.2-1.2,0.2-1.8c0.2-0.3,0.4-0.5,0.5-0.8c0.1-0.2,0.2-0.4,0.2-0.7
		c0-0.3-0.1-0.7-0.2-1c0,0,0,0-0.1,0c0,0.2,0.1,0.4,0.1,0.6c0.1,0.4,0.1,0.8-0.2,1.1c-0.3,0.3-0.6,0.5-0.9,0.7
		c-0.6,0.4-0.6,0.5-0.5,1.2c0.1,0.4-0.1,0.8-0.4,1c-0.1,0-0.1,0.1-0.2,0.2c0.1,0,0.2,0.1,0.3,0.1c0.1,0,0.3-0.1,0.4-0.2
		c0,0,0,0,0.1,0c-0.1,0.1-0.1,0.3-0.2,0.4c-0.2,0.2-0.4,0.3-0.7,0.2c-0.3-0.1-0.4-0.3-0.4-0.6c0-0.2,0.1-0.5,0.1-0.7
		c0.1-0.3,0-0.5-0.1-0.8c-0.1,0.4-0.1,0.9-0.3,1.3c-0.2,0.5-0.4,1-0.4,1.6C64.5,29.9,64.5,30,64.5,30z M53,28.7
		c0.1-0.2,0.1-0.4,0-0.6c-0.1-0.2-0.2-0.4-0.2-0.7c-0.1-0.6,0-1.2,0.2-1.7c0.2-0.9,0.3-1.8-0.3-2.7c-0.1-0.2-0.2-0.6-0.2-0.8
		c0-0.5,0.1-0.9,0.2-1.4c0.1-0.3,0.1-0.7,0.1-1c0,0-0.1,0-0.1,0c0,0.6-0.3,1.2-0.5,1.7C52,22,52,22.5,52.4,23
		c0.3,0.4,0.4,0.9,0.2,1.4c-0.1,0.3-0.3,0.6-0.4,0.9c-0.1,0.3-0.3,0.5-0.3,0.8c-0.1,0.5,0,1,0.3,1.4C52.4,27.9,52.7,28.3,53,28.7z
		 M69.8,38.7c0.4,0.3,0.7,0.5,1.1,0.5c0.9,0.2,1.5,0,2-0.8c0-0.1,0.1-0.2,0.1-0.3c0.3-0.5,0.1-1.6-0.3-2.1
		C72.7,37.1,71.1,38.6,69.8,38.7z M53.5,49.3c-0.9,0.9-1.5,2.6-1.3,3.8c0.1,0.4,0.2,0.7,0.4,1c0.2,0.2,0.4,0.4,0.7,0.5
		C53,52.8,53,51.1,53.5,49.3z M63.8,30.2c-1,0.5-2,1-2.8,1.7c0.4,0,0.9-0.1,1.3-0.1c0.4,0,0.7-0.2,0.9-0.6c0.1-0.2,0.3-0.4,0.5-0.5
		c0.4-0.2,0.7-0.6,0.7-1.1c0-0.4,0.1-0.8,0.3-1.2C65,28,65,27.6,65,27.2c-0.1,0.4-0.4,0.7-0.7,1c-0.3,0.2-0.4,0.5-0.4,0.9
		c0,0.4,0,0.8-0.4,1.1C63.7,30.2,63.7,30.2,63.8,30.2z M53,19.9c-0.1,0.4-0.1,0.9-0.3,1.3c-0.2,0.7-0.1,1.4,0.2,2
		c0.3,0.6,0.4,1.2,0.2,1.8c-0.1,0.6-0.2,1.2-0.3,1.8c-0.1,0.5,0.1,0.9,0.3,1.4c0.2-0.2,0.2-0.3,0.1-0.5c-0.1-0.2-0.2-0.4-0.2-0.6
		c-0.1-0.3-0.1-0.6,0.2-0.8c0.2-0.2,0.3-0.4,0.4-0.5c0.2-0.2,0.2-0.5,0.2-0.7c-0.1-0.4-0.1-0.8-0.1-1.2c0-0.1,0-0.2-0.1-0.2
		c-0.2-0.2-0.3-0.4-0.3-0.7c0-0.1,0-0.2-0.1-0.4c-0.1-0.1-0.2-0.3-0.2-0.4c0-0.3,0-0.6,0-0.9C53,20.8,53.1,20.3,53,19.9z M67.2,42.8
		c-0.4,0.7-0.7,1.3-1,1.9c-0.4,0.6-0.8,1.2-1.2,1.9C66.4,46.3,67.8,44.8,67.2,42.8z M49.5,49.1c-0.3-0.3-0.4-0.6-0.4-1
		c0-0.3,0.1-0.6,0.2-0.9c0.1-0.4,0.4-0.8,0.5-1.3c0.1-0.3,0.1-0.6,0.2-0.9c0,0,0,0-0.1,0c-0.2,0.6-0.6,1.1-1,1.7
		c-0.2,0.3-0.4,0.6-0.6,1c-0.3,0.7,0.1,1.6,0.7,2C49.3,49.5,49.4,49.3,49.5,49.1z M50.2,45c-0.1,0.3-0.1,0.7-0.2,1
		c-0.1,0.3-0.3,0.6-0.4,1c-0.1,0.3-0.3,0.7-0.4,1c-0.1,0.4,0.1,0.8,0.2,0.9c0.4-0.4,0.8-0.7,1.3-1.1c-0.1,0-0.1-0.1-0.2-0.1
		c-0.4-0.2-0.6-0.5-0.6-0.9c0-0.2,0.1-0.4,0.1-0.7C50.3,45.7,50.3,45.3,50.2,45z M61.5,54.9C61.5,54.9,61.5,54.9,61.5,54.9
		c1.3,0,2.2-1.1,2-2.3C62.8,53.4,62.2,54.1,61.5,54.9z M66.8,29.4C66.8,29.4,66.7,29.4,66.8,29.4c-0.4,0-0.6,0.2-0.6,0.6
		c0,0.5-0.1,0.7-0.7,0.7c-0.2,0-0.4-0.1-0.6-0.1c-0.1,0-0.1,0-0.2,0c-0.2,0.1-0.5,0.2-0.6,0.4c0.4,0,0.9,0,1.3,0
		c0.2,0,0.5-0.1,0.7-0.2c0.4-0.2,0.5-0.4,0.4-0.8C66.6,29.8,66.5,29.6,66.8,29.4z M54.2,19.2c0.5,0.4,0.5,0.9,0.1,1.2
		c-0.3,0.3-0.4,0.6-0.5,1c0,0.3-0.2,0.4-0.5,0.4c-0.1,0-0.1,0-0.2-0.1c0,0.3,0,0.5,0.2,0.7c0.2-0.3,0.3-0.5,0.5-0.7
		c0.3-0.2,0.4-0.5,0.5-0.8c0.1-0.4,0.2-0.7,0.2-1.1C54.6,19.5,54.5,19.3,54.2,19.2z M54.5,19.2c0.2,0.3,0.3,0.6,0.2,1
		c-0.1,0.3-0.2,0.7-0.3,1c0.3-0.2,0.7-0.3,1.1-0.5c-0.1,0-0.2,0-0.3,0c-0.3,0-0.4-0.1-0.4-0.4c0-0.1,0.1-0.2,0.1-0.4
		C55,19.6,54.8,19.4,54.5,19.2z M55.3,25.9C55.3,25.8,55.3,25.8,55.3,25.9c-0.5-0.2-0.8-0.4-1.3-1.3c0.1,0.8,0.5,1.4,1.1,1.3
		c-0.1-0.1-0.2-0.1-0.3-0.2C55.1,25.8,55.2,25.8,55.3,25.9z M55,25.1c0-0.1-0.1-0.2-0.1-0.2c0,0-0.1-0.1-0.1-0.1
		c-0.2,0-0.3-0.1-0.3-0.3c0-0.1,0-0.1,0-0.2c0,0,0,0-0.1,0c0,0.3,0,0.5,0.2,0.8C54.8,25.3,54.8,25.3,55,25.1z M66.1,28.7
		c-0.4,0-0.5,0-0.6-0.3c-0.1,0-0.2,0-0.3,0c0,0.2,0.1,0.4,0.3,0.4C65.8,28.9,66,28.9,66.1,28.7z"/>
	<path fill="#FFFFFF" d="M67.6,25.3c-0.3,0.2-0.5,0.5-0.8,0.7c-0.1,0.1-0.3,0.2-0.4,0.3c-0.3,0.2-0.4,0.5-0.3,0.8
		c0.1,0.2,0.1,0.4,0,0.6c-0.1,0.4-0.4,0.6-0.8,0.5c0.1-0.5,0.3-1-0.1-1.5c-0.1-0.2-0.3-0.4-0.4-0.5c0,0-0.1,0-0.1,0
		c0,0.1,0,0.3,0,0.4c0.1,0.5,0,1-0.4,1.3c-0.4,0.3-0.6,0.8-0.6,1.3c0,0.4-0.2,0.7-0.5,0.9c-0.9,0.6-1.8,1.2-2.7,1.8
		c-0.6,0.4-1,0.9-1.2,1.6c-0.1,0.2-0.2,0.4-0.2,0.6c-0.4,1-1.1,1.7-2.1,2.1c-0.5,0.2-1,0.4-1.5,0.6c-0.3,0.1-0.5,0.1-0.8,0
		c-0.7-0.3-1.4-0.6-2.1-0.9c-0.3-0.1-0.5-0.4-0.6-0.8c-0.1-0.7-0.3-1.4-0.5-2c-0.1-0.5,0-0.9,0.4-1.2c0.2,0.2,0.4,0.4,0.6,0.9
		c0-0.1,0.1-0.2,0.1-0.3c0-0.4-0.1-0.8-0.3-1.1c0-0.1-0.2-0.1-0.2-0.2c-0.2-0.1-0.3-0.3-0.2-0.5c0.1-0.2,0.4-0.3,0.6-0.1
		c0.2,0.2,0.4,0.4,0.4,0.7c0,0.2,0.1,0.4,0.2,0.7c0,0,0.1,0.1,0.1,0.1c0-0.7-0.1-1.4,0-2.1c0.1-0.6,0.2-1.2,0.6-1.7
		c0.1-0.1,0.1-0.4,0.1-0.5c0-0.1,0-0.1-0.1-0.2c-0.4-0.6-0.1-1.1,0.2-1.5c0.1-0.3,0.3-0.3,0.5-0.1c0.3,0.3,0.7,0.3,1.1,0.2
		c0.2-0.1,0.4,0,0.6,0.1c0.3,0.2,0.4,0.1,0.5-0.2c0,0,0,0,0,0c-0.3,0.2-0.6,0-0.8-0.1c-0.2-0.1-0.3-0.3-0.4-0.5
		c-0.1-0.1-0.1-0.2-0.1-0.3c-0.2-0.6-0.5-1-1-1.4c-0.5-0.4-0.6-0.9-0.5-1.4c0-0.2,0.2-0.4,0.4-0.5c0.4-0.3,0.8-0.5,1.2-0.7
		c0.2-0.1,0.3,0,0.4,0.1c0,0.1,0.1,0.1,0.1,0.2c0,0,0.1,0,0.1,0c0.2-0.6,0.7-1,1.1-1.4c0.7-0.6,1.5-1.1,2.3-1.5c0,0,0.1-0.1,0.2-0.1
		c-1,0.1-1.7,0.7-2.5,1.2c0.1-0.2,0.2-0.4,0.3-0.6c0.9-1.9,1.9-3.7,3.2-5.3c0.8-0.9,1.6-1.8,2.6-2.5c0.2-0.1,0.5-0.2,0.7-0.1
		c0.2,0,0.3,0.1,0.2,0.3c-0.1,0.2-0.2,0.4-0.3,0.6c-0.2,0.3-0.4,0.6-0.6,0.9c-0.8,1.1-1.2,2.4-1.5,3.7c-0.1,0.3-0.3,0.5-0.5,0.7
		c-0.2,0.2-0.6,0.4-0.8,0.5c-0.1,0.1-0.2,0.1-0.2,0.2c0,0,0.1,0,0.1,0c0.9-0.4,1.9-0.6,3-0.6c1.1,0,2.2,0,3.3,0.2
		c0.2,0,0.4,0.1,0.6,0.2c0.3,0.2,0.3,0.4,0,0.6c-0.3,0.2-0.5,0.4-0.8,0.7c0,0-0.1,0.1-0.2,0.1c0.1,0,0.1,0,0.1,0
		c1.6-1.1,3.1-2.2,4.3-3.7c0.3-0.4,0.6-0.9,0.9-1.4c0.6-1,1.2-2.1,1.7-3.2c0.1-0.2,0.4-0.3,0.6-0.1c0.1,0,0.1,0.1,0.2,0.2
		c0.3,0.6,0.5,1.3,0.2,1.9c-0.9,2-1.6,4-2.1,6.2c-0.2,0.9-0.3,1.8-0.5,2.7c0,0.1,0,0.2,0,0.4c0,0,0,0,0.1,0c0-0.1,0.1-0.1,0.1-0.2
		c0.1-0.2,0.1-0.4,0.1-0.6c0.1-0.5,0.7-0.8,1.2-0.4c2.9,2.4,4.8,5.4,5.6,9c0.3,1.4,0.3,2.8,0.1,4.2c-0.2,1.2-0.7,2.3-1.3,3.4
		c0-0.3,0-0.5,0-0.7c-0.1-1.7-0.9-3-2.2-4.1c-0.3-0.3-0.7-0.5-1-0.8c-0.7-0.6-1.3-1.4-1.4-2.3c-0.1-0.8,0-1.6,0.6-2.3
		c-0.2,0-0.3,0-0.4,0.1c-0.8,0.5-1.3,1.2-1.5,2.1c-0.3,1.4-0.1,2.6,0.5,3.9c0.2,0.4,0.4,0.8,0.6,1.2c0.2,0.5,0.3,0.9,0.2,1.4
		c0,0.2-0.1,0.3-0.2,0.5c-0.5,0.7-1.1,1.2-2,1.5c-0.4,0.1-0.7,0.1-1-0.1c-0.3-0.2-0.5-0.4-0.8-0.7c-0.1-0.1-0.1-0.2-0.1-0.3
		c0-0.6,0-1.2,0-1.9c-0.1-1.5,0-3,0.9-4.4c0.2-0.3,0.4-0.7,0.6-1.1c0.2-0.4,0.4-0.9,0.4-1.4c0-0.3-0.1-0.6-0.4-0.8
		c-0.4-0.2-0.7-0.5-0.9-0.9c-0.1-0.2-0.2-0.4-0.4-0.7c0-0.1-0.1-0.1-0.1-0.1c0.2,0.8,0.4,1.5,0.5,2.3c0,0,0,0,0,0c0-0.1,0-0.2,0-0.3
		c0.6,0.2,0.7,0.7,0.4,1.2c-0.1,0.2-0.3,0.4-0.5,0.6c-0.5,0.6-1,1.1-1.4,1.7c-0.4,0.6-1,0.7-1.6,0.8c-1.4,0.2-2.8,0.5-4.1,1.1
		c-1.6,0.7-2.9,1.6-3.8,3.1c-0.2,0.3-0.3,0.5-0.4,0.8c-0.1,0.2-0.2,0.4-0.5,0.5c-0.7,0.2-1.4,0.5-2.1,0.6c-0.6,0.1-1.1-0.1-1.6-0.5
		c-0.2-0.2-0.2-0.4-0.2-0.7c0-0.1,0.1-0.2,0.2-0.1c0.3,0.1,0.5,0.2,0.8,0.3c0.4,0.1,0.7,0.1,1.1-0.1c0.4-0.2,0.9-0.4,1.3-0.6
		c1-0.4,1.7-1.2,2.2-2.1c0.2-0.4,0.4-0.9,0.6-1.3c0.1-0.1,0.2-0.3,0.3-0.4c0.6-0.4,1.2-0.6,2-0.4c0.8,0.2,1.2-0.1,1.6-0.8
		c0.2-0.3,0.4-0.4,0.7-0.4c0.3,0,0.6,0,0.9,0c0.3,0,0.6,0,0.8-0.1c0.4-0.1,0.6-0.4,0.6-0.8c0-0.1,0.1-0.3,0.2-0.3
		c0.2-0.1,0.4-0.2,0.6-0.3c0.2-0.1,0.4-0.2,0.6-0.3c0.5-0.3,0.6-0.8,0.5-1.3c-0.1-0.2-0.2-0.5-0.2-0.7c0-0.2,0-0.5,0-0.7
		c-0.3,0.1-0.4,0.3-0.6,0.6c0,0,0,0-0.1,0c0.1-0.4,0.2-0.7,0.3-1.1c0.1-0.2,0.2-0.3,0.2-0.5c0.2-0.4,0.2-0.8,0-1.2
		c-0.2-0.3-0.2-0.6-0.3-1c0-0.1,0-0.3,0-0.4c-0.2,0.5-0.6,1-0.3,1.5C67.9,24.7,67.8,25,67.6,25.3c-0.3-0.2-0.6-0.4-0.9-0.5
		c-0.9-0.3-1.9-0.5-2.9-0.5c-0.7,0-1.4,0.1-1.9,0.5c-0.5,0.3-0.9,0.7-1.4,1c-0.3,0.2-0.7,0.5-1,0.7c-0.2,0.1-0.4,0.2-0.6,0.2
		c-0.4,0.1-0.6-0.1-0.8-0.4c-0.1-0.1-0.1-0.3-0.3-0.3c0,0.1,0.1,0.3,0.1,0.4c0.1,0.5,0.5,0.8,1,0.7c0.3-0.1,0.5,0,0.7,0.1
		c0.3,0.2,0.6,0.2,0.9,0.2c0.4,0,0.8-0.1,1.3,0c0.6,0.1,1.1-0.1,1.6-0.4c0.4-0.3,0.9-0.5,1.3-0.8c0.4-0.2,0.5-0.5,0.2-0.9
		c-0.1-0.1-0.2-0.3-0.3-0.4c-0.1-0.1-0.2-0.1-0.3-0.2c0.9,0.1,1.7,0.2,2.5,0.4C66.9,25.1,67.3,25.2,67.6,25.3z M55.2,38.1
		c0.3-0.1,0.5-0.2,0.8-0.3c0.4-0.1,0.8-0.2,1.1-0.3c0.2-0.1,0.4-0.2,0.4-0.4c-0.2,0.3-0.4,0.4-0.7,0.4c-0.2,0-0.4,0.1-0.6,0.1
		C55.9,37.8,55.6,37.9,55.2,38.1c-0.5,0.1-1-0.2-1.4-0.4c0.2,0.3,1,0.6,1.3,0.5C55.1,38.1,55.1,38.1,55.2,38.1z M56.7,24.4
		c-0.3-0.1-0.4-0.4-0.5-0.7c0-0.3-0.1-0.6-0.1-1c-0.1-0.4-0.1-0.8-0.4-1c0,0-0.1-0.1-0.2-0.1c0,0.1,0,0.1,0,0.2
		c0.1,0.3,0.3,0.7,0.4,1c0.1,0.5,0.2,1,0.3,1.4c0,0.1,0,0.2,0,0.3c-0.1,0.1-0.1,0.2-0.2,0.3c0.1,0,0.2-0.1,0.2-0.1
		c0.2-0.2,0.4-0.1,0.4,0.2c0,0.2,0,0.3,0,0.5c0,0.1,0,0.1,0,0.2c0,0,0.1,0,0.1,0C57,25.2,56.9,24.8,56.7,24.4
		c0.1,0.1,0.2,0.2,0.3,0.4c0-0.4-0.4-0.6-0.6-1c0,0.1,0.1,0.3,0.2,0.4C56.6,24.2,56.7,24.3,56.7,24.4z M57.2,33.4
		c0,0.1-0.1,0.3-0.1,0.3c0.2-0.2,0.5-0.4,0.7-0.5c0.1-0.1,0.3-0.2,0.4-0.3c0.2-0.2,0.2-0.5,0.1-0.8c-0.2-0.4-0.6-0.5-1-0.6
		c-0.7,0-1.2,0.3-1.7,0.7c-0.2,0.1-0.3,0.3-0.6,0.2c0,0-0.1,0-0.1,0c-0.2,0.2-0.5,0.4-0.7,0.6c0,0,0,0.1,0.1,0.1
		c0.2-0.1,0.3-0.2,0.5-0.3c0.1-0.1,0.2-0.2,0.5-0.2c0.1,0,0.2-0.1,0.3-0.1c0.1-0.1,0.3-0.2,0.4-0.3c0.5-0.4,1-0.5,1.6-0.5
		c0.3,0,0.5,0.2,0.6,0.6c0.1,0.3-0.1,0.4-0.3,0.6C57.7,33.1,57.5,33.3,57.2,33.4c0.1-0.1,0.1-0.3,0.2-0.5c0.1-0.2-0.1-0.4-0.3-0.4
		c-0.1,0-0.3,0-0.4,0.1c-0.4,0.2-0.7,0.4-1.1,0.7c-0.2,0.2-0.5,0.3-0.8,0.2c-0.1,0-0.2,0.1-0.3,0.1c0,0,0,0,0,0.1c0.1,0,0.2,0,0.2,0
		c0.4,0,0.8-0.1,1.2-0.2c0.3-0.1,0.5-0.1,0.8,0C56.9,33.5,57.1,33.6,57.2,33.4z M66.9,23.6C66.9,23.6,66.9,23.6,66.9,23.6
		c-0.1-0.1-0.1-0.2-0.2-0.2c-0.7-0.3-1.4-0.6-2.1-0.9c-0.8-0.3-1.7-0.3-2.5,0.1c-1.2,0.6-2.3,1.2-3.1,2.1c-0.2,0.3-0.4,0.3-0.7,0
		c0,0-0.1,0-0.2,0c-0.3,0.2-0.4,0.4-0.6,0.8c0.2-0.2,0.4-0.4,0.6-0.5c0.1,0.2,0.2,0.2,0.3,0.1c0,0,0.1,0,0.1,0
		c0.2,0.1,0.3,0,0.4-0.1c0.9-0.8,2-1.5,3.1-2.2c0.6-0.3,1.2-0.5,1.9-0.3c0.8,0.1,1.5,0.4,2.2,0.8C66.5,23.5,66.7,23.5,66.9,23.6z
		 M77,30.6C77,30.6,77,30.6,77,30.6c0.1-0.1,0.1-0.1,0.1-0.2c0-0.7-0.2-1.2-0.4-1.8c-0.8-1.8-1.9-3.5-3-5.1
		c-0.1-0.1-0.2-0.2-0.3-0.3c-0.1-0.1-0.3-0.1-0.4-0.2c0,0,0,0.1,0,0.1c0.3,0,0.6,0.2,0.7,0.5c0.6,1,1.3,2,1.9,3.1
		c0.7,1.1,1.2,2.3,1.4,3.6C76.9,30.3,76.9,30.4,77,30.6z M73.7,29.1c-0.1,0.5,0.2,0.9,0.5,1.2c0.6,0.7,1.3,1.4,1.9,2.1
		c0.5,0.5,0.9,1,1.1,1.6c0,0.1,0.1,0.3,0.2,0.3c0.1,0.1,0.3,0.1,0.3-0.1c0-0.6,0.1-1.2,0.1-1.8c0-0.3-0.1-0.6-0.1-0.9
		c0,0-0.1,0-0.1,0c0.1,0.8,0.2,1.7,0,2.6c-0.1-0.1-0.1-0.2-0.1-0.2c-0.1-0.6-0.5-1-0.9-1.5c-0.7-0.7-1.3-1.4-2-2.1
		C74.1,30,73.7,29.6,73.7,29.1z M77.8,29.9c0,0-0.1,0-0.1,0c0.2,1,0.3,2,0.3,3.1c-0.1,1-0.2,2-0.6,3c-0.1-0.2-0.1-0.5-0.2-0.7
		c0,0,0,0,0,0c0,0.3,0.1,0.6,0.1,1c0,0,0,0,0.1,0.1c0.1-0.1,0.2-0.2,0.3-0.3c0.1-0.2,0.1-0.4,0.2-0.6c0.3-1.4,0.5-2.8,0.3-4.2
		C78,30.8,77.9,30.3,77.8,29.9z M69.8,31.8C69.8,31.8,69.8,31.8,69.8,31.8c-0.1,0.1-0.1,0.1-0.1,0.1c-0.3,0.9-0.5,1.8-0.3,2.8
		c0.1,0.7,0.2,1.3,0.3,1.9c0,0.2,0.1,0.4,0.3,0.4c0.4,0.2,1.1,0,1.2-0.4c0.2-0.3,0-1.1-0.4-1.3c0.1,0.2,0.2,0.3,0.2,0.4
		c0.3,0.6,0.1,1-0.6,1.1c-0.4,0.1-0.7-0.1-0.7-0.6c0-0.2,0-0.5-0.1-0.7c-0.2-1-0.3-2.1,0-3.1C69.7,32.3,69.8,32.1,69.8,31.8z
		 M72.9,11.4c0.2-0.2,0.3-0.2,0.4-0.1c0.1,0.1,0.2,0.2,0.3,0.4c0.1,0.4,0,0.8-0.1,1.2c-0.2,0.6-0.5,1.2-0.7,1.9
		c-0.9,2-1.5,4.1-1.7,6.3c0,0.2,0,0.4-0.1,0.7c0.1-0.1,0.1-0.1,0.1-0.1c0.1-0.3,0.1-0.6,0.2-0.9c0.2-1.7,0.6-3.3,1.3-4.9
		c0.4-0.9,0.8-1.9,1.1-2.8c0.1-0.3,0.1-0.6,0.2-1c0-0.3-0.1-0.5-0.3-0.7C73.2,11.1,73,11.1,72.9,11.4z M75.9,33.1
		c-0.1-0.1-0.1-0.2-0.2-0.3c-0.2-0.2-0.4-0.4-0.7-0.6c-0.3-0.3-0.7-0.5-1-0.8c-0.9-0.9-1.3-2-1-3.3c0,0,0-0.1,0-0.1
		c0,0-0.1,0-0.1,0.1c0,0.1-0.1,0.1-0.1,0.2c-0.2,0.4-0.2,0.8-0.1,1.2c0.2,1.1,0.8,1.9,1.7,2.6C75,32.4,75.4,32.8,75.9,33.1z
		 M70.6,30.8C70.5,30.8,70.5,30.8,70.6,30.8c0,0.3-0.1,0.6,0,0.8c0.2,0.8,0.5,1.6,0.7,2.4c0.2,0.5,0.4,1.1,0.6,1.6
		c0.1,0.4,0.1,0.9-0.3,1.2c-0.5,0.5-1.1,0.9-1.8,0.8c0,0.2,0.2,0.2,0.4,0.2c0.5-0.1,1-0.4,1.4-0.8c0.3-0.3,0.5-0.7,0.4-1.2
		c-0.1-0.3-0.2-0.7-0.3-1C71.3,33.5,70.6,32.2,70.6,30.8z M68.2,18C68.2,18,68.2,18.1,68.2,18c0.7-0.5,1.3-1,1.9-1.6
		c1.2-1.2,2.1-2.7,2.9-4.3c0.1-0.1,0.2-0.2,0.2-0.3c0,0.1,0.1,0.3,0.1,0.4c0,0.3-0.1,0.5-0.2,0.8c0.2-0.4,0.3-0.8,0.3-1.2
		c0-0.1-0.1-0.2-0.1-0.2c-0.1,0-0.2,0.1-0.2,0.1c-0.1,0.2-0.2,0.4-0.3,0.6c-1,1.9-2.2,3.6-3.8,5C68.6,17.6,68.4,17.8,68.2,18z
		 M69.9,30.8C69.9,30.8,69.9,30.8,69.9,30.8c-0.3,0.6-0.6,1.2-0.9,1.7c-0.3,0.6-0.4,1.3-0.3,2c0.1,0.9,0.1,1.8,0.2,2.7
		c0,0,0,0.1,0,0.1c0.1,0,0.1-0.1,0.1-0.1c0-0.3,0.1-0.6,0-1c-0.1-0.6-0.2-1.2-0.2-1.9c-0.1-0.9,0.2-1.7,0.6-2.5
		C69.6,31.4,69.8,31.1,69.9,30.8z M57.5,18.5c1.1-2.4,2.7-4.4,4.4-6.3C60.2,14.1,58.5,16.1,57.5,18.5z M58.8,26.3
		c0.3,0.1,0.5-0.1,0.7-0.3c0.6-0.4,1.2-0.9,1.8-1.3c0.8-0.6,1.8-0.8,2.8-0.8c0.2,0,0.4,0,0.5,0c-0.3-0.1-0.5-0.1-0.8-0.1
		c-1-0.1-1.9,0.3-2.8,0.8c-0.6,0.4-1.2,0.9-1.7,1.3C59.1,26.2,59,26.2,58.8,26.3z M64.9,23.3C64.9,23.3,64.9,23.3,64.9,23.3
		c-0.3-0.2-0.7-0.3-1.1-0.4c-0.3-0.1-0.6-0.1-0.8,0c-0.7,0.1-1.3,0.4-1.9,0.8c-0.4,0.3-0.8,0.6-1.2,0.9c-0.3,0.3-0.7,0.5-1,0.8
		c0.2-0.1,0.4-0.2,0.6-0.3c0.6-0.5,1.2-1,1.9-1.4c1-0.6,2-0.9,3.1-0.5C64.7,23.3,64.8,23.3,64.9,23.3z M63,12.2
		C63,12.2,63,12.2,63,12.2C63,12.2,63,12.2,63,12.2c-0.9,1.3-1.6,2.5-1.9,4c-0.1,0.5-0.3,0.9-0.7,1.2c0,0,0,0.1-0.1,0.1
		c0,0,0,0,0.1,0c0.2-0.2,0.3-0.3,0.4-0.5c0.2-0.3,0.4-0.7,0.4-1c0.3-1,0.7-2,1.3-2.9C62.7,12.8,62.9,12.5,63,12.2z M70.8,16.1
		c-1.3,1.5-2.8,2.7-4.4,3.8C68,18.8,69.7,17.7,70.8,16.1z M61.6,17.7c0.1,0,0.3,0,0.4,0c1.3-0.1,2.5,0.1,3.8,0.2
		c0.2,0,0.4,0.1,0.6,0.2c0.2,0.1,0.2,0.3,0,0.4c-0.1,0.1-0.1,0.1-0.2,0.2c0.1,0,0.2,0,0.2-0.1c0.3-0.2,0.3-0.4,0-0.6
		c-0.2-0.1-0.4-0.2-0.7-0.2c-0.6-0.1-1.2-0.1-1.7-0.1C63.2,17.5,62.4,17.4,61.6,17.7z M71.7,21.9C71.8,21.9,71.8,21.9,71.7,21.9
		c0.2-0.7,0.8-0.8,1.2-0.4c0.1,0.1,0.2,0.2,0.3,0.3c0.3,0.4,0.6,0.7,0.8,1c0.3,0.4,0.7,0.8,1,1.2c0,0,0.1,0.1,0.1,0.1
		c0-0.1,0-0.1,0-0.2c-0.2-0.3-0.4-0.5-0.6-0.7c-0.5-0.6-0.9-1.1-1.4-1.6c-0.1-0.1-0.3-0.3-0.4-0.4C72.3,21,71.7,21.4,71.7,21.9z
		 M65.1,32.1C65.1,32.1,65.1,32.1,65.1,32.1c0.4,0,0.8-0.1,1.2-0.1c0.4-0.1,0.7-0.2,0.9-0.5c0.6-0.6,1.2-1.3,1.8-1.9
		c0.1-0.1,0.2-0.2,0.3-0.4c0.1-0.2,0.1-0.3,0.1-0.5c-0.2,0.3-0.3,0.6-0.5,0.8c-0.6,0.7-1.2,1.4-1.9,2c-0.2,0.2-0.5,0.3-0.7,0.4
		C65.9,31.9,65.5,32,65.1,32.1z M69.2,26C69.2,26,69.2,26,69.2,26c0,0.2,0.1,0.4,0.2,0.6c0.1,0.3,0.3,0.5,0.6,0.5
		c0.3,0,0.5,0.2,0.5,0.5c0.1,0.3,0.1,0.7,0.1,1c0,0.2-0.1,0.4-0.2,0.5c-0.2,0.3-0.4,0.7-0.7,1c-0.1,0.1-0.1,0.3-0.2,0.4
		c0.3-0.3,0.5-0.7,0.8-1.1c0.3-0.4,0.4-0.8,0.4-1.3c0-0.2,0-0.3-0.1-0.5c-0.1-0.5-0.2-0.6-0.7-0.7c-0.2,0-0.4-0.2-0.5-0.4
		C69.4,26.4,69.3,26.2,69.2,26z M60.7,28.7c-0.3-0.1-0.6,0-0.8,0.3c-0.2,0.3-0.4,0.4-0.7,0.5c-0.4,0.2-0.8,0.4-1.2,0.6
		c-0.1,0-0.1,0.1-0.2,0.2c0.1,0,0.1,0,0.1,0c0.5-0.3,1-0.5,1.5-0.8c0.2-0.1,0.4-0.3,0.5-0.4c0.1-0.1,0.3-0.2,0.4-0.3
		C60.6,28.7,60.7,28.7,60.7,28.7z M54.3,36C54.3,36,54.3,36,54.3,36c0.1,0.1,0.2,0.1,0.2,0.1c0.3,0.4,0.8,0.3,1.1,0.2
		c0.7-0.1,1.3-0.3,1.9-0.8c0.1-0.1,0.3-0.3,0.4-0.4c0,0,0,0,0,0c-0.5,0.6-1.1,0.9-1.8,1.1c-0.3,0.1-0.5,0.2-0.8,0.1c0,0-0.1,0-0.2,0
		c-0.1,0-0.3-0.1-0.4-0.1C54.5,36.1,54.4,36,54.3,36z M53.9,22.2c-0.2,0.4-0.1,0.8,0.3,1.1c0.6,0.5,1.1,1.1,1.3,1.9
		c0,0.1,0.1,0.2,0.2,0.4c-0.1-0.3-0.2-0.5-0.3-0.7c-0.1-0.4-0.3-0.8-0.6-1.1c-0.1-0.1-0.2-0.2-0.4-0.3
		C54.1,23.2,53.8,22.8,53.9,22.2C53.9,22.3,53.9,22.3,53.9,22.2z M62.4,23.5C62.4,23.5,62.4,23.5,62.4,23.5c0.1,0,0.2,0,0.2,0
		c0.5-0.2,1.1-0.2,1.6,0c0.7,0.2,1.4,0.5,2.1,0.7c0.1,0,0.2,0.1,0.3,0.1c0,0,0,0,0,0c-0.1-0.1-0.2-0.1-0.3-0.2
		c-0.8-0.3-1.6-0.6-2.4-0.8C63.4,23.2,62.9,23.2,62.4,23.5z M54.9,28.2c0,0.1,0,0.2,0,0.2c0.1,0.7-0.2,1.3-0.5,1.9
		c-0.2,0.3-0.4,0.6-0.6,0.9c-0.1,0.1-0.1,0.2-0.2,0.3c0.3-0.3,0.5-0.6,0.7-0.9C54.9,29.9,55.2,29.1,54.9,28.2z M57.3,28.9
		c-1.1,0.7-1.7,1.8-2.2,3C55.6,30.8,56.3,29.7,57.3,28.9z M53.9,26.3c-0.3,0.4-0.3,0.9-0.2,1.4c0.1,0.4,0.1,0.8-0.2,1.1
		c-0.2,0.3-0.3,0.6-0.3,0.9c0.2-0.4,0.4-0.9,0.6-1.3c0.1-0.1,0.1-0.3,0-0.5C53.8,27.4,53.7,26.9,53.9,26.3z M61.5,30.8
		C61.5,30.8,61.5,30.8,61.5,30.8c0.5-0.2,0.9-0.4,1.3-0.6c0.2-0.1,0.3-0.3,0.4-0.6c0-0.4,0.2-0.7,0.4-1.1c0,0,0-0.1,0-0.1
		c0,0,0,0-0.1,0c-0.1,0.3-0.3,0.7-0.4,1c-0.1,0.4-0.3,0.7-0.7,0.9C62,30.5,61.8,30.6,61.5,30.8z M59.2,27.8
		C59.1,27.8,59.1,27.8,59.2,27.8c0,0.1,0.1,0.1,0.1,0.2c0.2,0.3,0.4,0.3,0.8,0.2c0.1,0,0.3,0,0.4,0c0.4,0,0.8,0.1,1.3,0.1
		c0,0,0,0,0-0.1c-0.5-0.1-1-0.1-1.5-0.2c0,0-0.1,0-0.1,0C59.8,28.2,59.5,28.1,59.2,27.8C59.2,27.8,59.2,27.8,59.2,27.8z M58.9,18.9
		c-1,0.4-1.9,0.9-2.5,1.7C57.1,19.9,58,19.4,58.9,18.9z M58.6,19.4c-0.8,0.2-2.5,1.6-2.6,2.2C56.7,20.6,57.6,19.9,58.6,19.4z
		 M54.3,27.1c-0.1,0.1,0,0.2,0,0.4c0.1,0.2,0.1,0.4,0.2,0.6c0,0.1,0,0.3,0,0.4c0,0.2,0,0.4,0,0.6c0,0,0,0,0.1,0
		c0-0.4,0.1-0.7,0.1-1.1c0-0.1-0.1-0.2-0.1-0.3C54.5,27.4,54.4,27.3,54.3,27.1z M63,32.4c-0.5,0.2-1,0.2-1.5,0.1
		c-0.6-0.1-1,0.2-1.3,0.5c0,0,0.1,0,0.1,0c0.5-0.3,1-0.6,1.6-0.4c0.1,0,0.2,0,0.3,0C62.5,32.7,62.8,32.6,63,32.4z M53.9,37.5
		c0.1-0.2,0.2-0.1,0.4-0.1c0.4,0.1,0.8,0.3,1.2,0.1c0.5-0.2,0.9-0.5,1.4-0.7c0,0,0,0,0-0.1c-0.3,0.2-0.7,0.3-1,0.5
		c-0.4,0.2-0.8,0.3-1.2,0.2c-0.1,0-0.3-0.1-0.4-0.1C54,37.3,53.9,37.3,53.9,37.5z M59.3,28.9C59.3,28.9,59.3,28.9,59.3,28.9
		c0.1,0,0.1,0,0.1,0c0.2,0.1,0.3,0,0.4-0.1c0.2-0.2,0.4-0.2,0.6-0.3c0.2,0,0.4,0,0.6,0c0.3,0,0.6,0,1,0.1c0-0.1-0.1-0.1-0.2-0.1
		c-0.5,0-1.1,0-1.6,0c-0.1,0-0.2,0.1-0.3,0.1c-0.1,0.1-0.2,0.3-0.4,0.2C59.4,28.8,59.4,28.8,59.3,28.9z M59.9,17.3
		C60,17.3,60,17.3,59.9,17.3c0.1,0,0.2-0.1,0.3-0.1c0.4-0.3,0.6-0.7,0.8-1.2c0.1-0.4,0.2-0.8,0.4-1.3c-0.1,0.3-0.2,0.5-0.3,0.8
		C60.9,16.2,60.6,16.8,59.9,17.3C60,17.2,60,17.3,59.9,17.3z M56.8,21c-0.1,0.1-0.1,0.2-0.1,0.3c0,0.2,0,0.4,0,0.7
		c0.1,0.5,0.2,0.9,0.3,1.4c0,0,0.1,0,0.1,0c-0.1-0.2-0.1-0.5-0.2-0.7C56.7,22.2,56.8,21.6,56.8,21z M54.3,21.9
		c-0.2,0.4-0.2,0.9,0.1,1.2c0.2,0.2,0.4,0.4,0.7,0.6c0,0,0,0,0,0c-0.1-0.1-0.2-0.2-0.3-0.3C54.3,23.1,54.1,22.6,54.3,21.9
		C54.3,21.9,54.3,21.9,54.3,21.9z M57.7,18.6C57.7,18.6,57.8,18.6,57.7,18.6c0.5-0.7,0.9-1.5,1.3-2.2c0,0,0,0-0.1,0
		C58.5,17,58.1,17.8,57.7,18.6z M54.6,26.3C54.6,26.3,54.6,26.3,54.6,26.3c0.5,0.1,1,0.2,1.6,0.3C55.7,26.2,55.1,26.3,54.6,26.3z
		 M51.9,33.6c0,0.4,0.1,0.9,0.2,1.4c0,0.2,0.1,0.3,0.1,0.5c0,0.1,0.1,0.1,0.2,0.2c-0.1-0.2-0.2-0.3-0.2-0.5c0-0.1,0-0.2,0-0.3
		C52.1,34.4,52.1,33.9,51.9,33.6z M61.8,27.9C61.8,27.9,61.9,27.9,61.8,27.9c-0.2-0.1-0.3-0.1-0.5-0.1c-0.3,0-0.6,0-0.8-0.2
		c-0.3-0.2-0.6-0.1-0.8-0.2c0.3,0.1,0.7,0.3,1,0.3C61.1,27.9,61.5,27.9,61.8,27.9z M58,27.1c0.2,0.1,0.3,0.2,0.4,0.2
		c0.4,0,0.7,0.1,0.9,0.4c0,0,0.1,0,0.1,0.1c0-0.1,0-0.2-0.1-0.2c-0.2-0.1-0.4-0.2-0.6-0.2C58.6,27.1,58.4,27.1,58,27.1z M57.5,34.8
		c-0.3,0.3-0.7,0.6-1.1,0.8C56.8,35.6,57.4,35.2,57.5,34.8z M57.6,26.7c-0.2-0.3-0.7-0.4-0.9-0.3C57,26.5,57.3,26.6,57.6,26.7z
		 M55.6,22.3C55.6,22.3,55.6,22.3,55.6,22.3c0,0.5,0.1,1,0.2,1.5c0,0,0,0,0.1,0C55.8,23.3,55.7,22.8,55.6,22.3z M56,25.1
		C56,25.1,56.1,25.1,56,25.1c0.1,0.1,0.1,0,0.1,0c0.1,0,0.1-0.1,0.2-0.1c0,0.1,0,0.1,0,0.2c0,0.1,0,0.3,0,0.4
		c0.1-0.1,0.1-0.2,0.1-0.4c0-0.1,0-0.3-0.1-0.4C56.3,24.9,56.2,25,56,25.1z M68.5,29.6C68.5,29.6,68.5,29.6,68.5,29.6
		c-0.3,0.4-0.6,0.7-0.9,1c0,0,0,0,0,0C67.8,30.3,68.1,30,68.5,29.6z M56.4,32.6C56.4,32.5,56.4,32.5,56.4,32.6
		c-0.4,0.1-0.7,0.3-1,0.5c0,0,0,0,0,0.1C55.7,32.9,56.1,32.7,56.4,32.6z M57.6,33c0.5-0.5,0.5-0.6,0.4-0.8
		C58.1,32.6,57.7,32.7,57.6,33z M54.5,27c0,0,0,0.1,0,0.1c0.3,0,0.2,0.3,0.3,0.4C54.9,27.3,54.8,27.1,54.5,27z M57.9,25.5
		c0.2,0.1,0.4,0.1,0.6,0.2C58.5,25.5,58.1,25.4,57.9,25.5z M57,26.1c0.2,0.1,0.4,0.2,0.5,0.2C57.5,26.2,57.3,26.1,57,26.1z"/>
	<path fill="#FFFFFF" d="M56.2,61.4c-0.2-0.5-0.4-0.9-0.6-1.4c-0.7-1.6-1.2-3.2-1.6-4.9c-0.4-2.3-0.3-4.5,0.3-6.8
		c0.3-1.2,0.6-2.4,0.9-3.6c0-0.1,0-0.1,0.1-0.2c1.1-0.9,2-1.9,2.8-3c0.8-1,1.5-2,2.3-3c0.1-0.1,0.1-0.2,0.2-0.3c0,0,0,0,0,0
		c0.6,0.9,1.5,1.3,2.5,1.5c0.5,0.1,1,0.2,1.5,0.3c1,0.3,1.7,0.9,2.2,1.8c0,0.1,0,0.2,0,0.3c-0.5,1.3-1.2,2.4-2,3.6
		c-0.2,0.2-0.3,0.5-0.5,0.7c-0.1,0.2-0.2,0.2-0.4,0.2c-0.2,0-0.4,0-0.7,0c-0.5,0-0.8-0.3-1.1-0.7c-0.6-0.9-0.8-1.9-0.6-3
		c0.1-0.5,0.2-0.9,0.5-1.3c0.1-0.2,0.2-0.3,0.2-0.5c0-0.1,0-0.2,0-0.2c-0.1,0-0.2,0-0.2,0.1c-0.1,0.1-0.3,0.3-0.4,0.4
		c-0.6,0.7-1.1,1.4-1.5,2.2c-0.9,1.8-0.7,3.5,0.6,5.1c0.4,0.4,0.8,0.9,1.2,1.3c0,0-0.1,0.1-0.1,0.2c-1.1,1.7-2.2,3.4-3.2,5.1
		c-0.4,0.6-0.7,1.1-1.2,1.6C56.3,58.2,55.9,59.7,56.2,61.4C56.2,61.3,56.2,61.3,56.2,61.4C56.2,61.4,56.2,61.4,56.2,61.4z
		 M55.3,45.5c-0.7,2.1-1.1,4.2-1.1,6.5c0,2.1,0.8,5.8,1.1,6.5c0-0.1,0-0.1,0-0.2c-0.2-1.1-0.4-2.1-0.6-3.2c-0.4-2.2-0.4-4.4,0-6.6
		C54.9,47.4,55.1,46.4,55.3,45.5z M55.7,59C55.7,59,55.8,59,55.7,59c0.2-0.2,0.3-0.4,0.4-0.6c0.3-0.5,0.5-1,0.8-1.5
		c0.1-0.2,0.4-0.4,0.6-0.6c0,0,0.1-0.1,0.1-0.1c-0.1,0-0.1,0-0.2-0.1c0,0-0.1,0-0.1,0c0,0-0.1,0-0.1,0c0,0,0,0,0-0.1
		c0.6-0.1,0.7-0.6,0.9-0.9c0.3-0.6,0.6-1.2,0.9-1.8c0.5-0.8,1-1.6,1.6-2.3c0-0.1,0.1-0.1,0.1-0.2c0,0,0,0-0.1,0
		c-0.1,0-0.1,0.1-0.2,0.1c-0.1,0.2-0.3,0.3-0.4,0.5c-0.9,1.2-1.6,2.5-2.2,3.9c-0.1,0.3-0.3,0.5-0.6,0.6c-0.2,0.1-0.3,0.2-0.3,0.4
		c0.1,0,0.2,0,0.4,0C56.4,57,55.9,58,55.7,59z M56.2,47.6c0-0.1,0-0.2,0-0.4c0.1-0.7,0.1-1.4,0.2-2.1c0.1-0.6,0.2-1.1,0.6-1.5
		c1.1-1.2,2.1-2.6,3.1-4c0,0,0.1-0.1,0.1-0.1c-0.1,0-0.2,0.1-0.2,0.2c-1,1.2-1.9,2.5-2.9,3.7c-0.4,0.4-0.6,0.9-0.7,1.5
		c0,0.2-0.1,0.3-0.1,0.5C56.2,46.1,56.1,46.9,56.2,47.6z M55,52.3c0.1-1.4,0.1-2.7,0.3-4.1c0.1-1.4,0.5-2.7,0.9-4
		C55.1,46.8,54.7,49.5,55,52.3z M59.9,50.3C60,50.3,60,50.3,59.9,50.3c-0.9-2-1.2-4-0.4-6.1c-0.9,1.9-0.6,3.9,0.2,5.8
		c0,0-0.1,0-0.1-0.1c-0.1,0-0.2,0-0.3,0c0,0.1,0,0.2,0.1,0.3c0,0,0,0,0,0c0.2,0.2,0.1,0.3,0,0.5c-0.3,0.4-0.5,0.9-0.8,1.3
		c0,0.1,0,0.1-0.1,0.2c0,0,0,0,0.1,0c0-0.1,0.1-0.2,0.1-0.3c0.3-0.4,0.5-0.8,0.8-1.3c0.2-0.3,0.2-0.3,0-0.6c0,0,0-0.1,0-0.2
		c0.1,0,0.1,0,0.2,0C59.7,50.2,59.8,50.3,59.9,50.3z M64.2,46.2c0.1-0.1,0.2-0.2,0.3-0.4c0.2-0.4,0.5-0.8,0.7-1.1
		c0.3-0.7,0.7-1.4,1-2.1c0-0.1,0-0.2,0-0.2c0,0,0,0-0.1,0c0,0.1-0.1,0.2-0.1,0.2c-0.4,0.9-0.9,1.9-1.3,2.8c-0.2,0.4-0.4,0.8-0.9,0.8
		c0,0.1,0.1,0.1,0.1,0.2c-0.3,0-0.6,0-0.9,0c0.4,0.2,0.8,0.2,1.2,0.1C64.1,46.4,64.1,46.3,64.2,46.2z M64.4,44.8
		c0.7-0.9,1.2-1.8,1.5-2.8C65.4,42.9,64.9,43.8,64.4,44.8z"/>
	<path fill="#FFFFFF" d="M60.4,36c0.1,0.1,0.1,0.1,0.1,0.2c0.6,1,1.5,1.4,2.7,1c0.5-0.2,1-0.4,1.5-0.6c0.6-0.2,1.2-0.4,1.8-0.3
		c0.8,0.1,1.4,0.5,1.8,1.2c0.6,1.1,1.5,1.7,2.6,2c0.9,0.2,1.6,0,2.3-0.7c0.4-0.5,0.5-1.1,0.4-1.7c-0.1-0.8-0.5-1.5-0.8-2.3
		c-0.4-1-0.9-2-1.3-3c-0.4-1.1-0.2-2.2,0.4-3.3c0-0.1,0.1-0.1,0.1-0.2c-0.1,0.4-0.2,0.7-0.2,1.1c-0.1,0.9,0.1,1.7,0.7,2.3
		c0.4,0.5,0.9,1.1,1.3,1.6c0.7,1,1.2,2.1,1.4,3.3c0.2,1.4,0.1,2.7-0.7,3.9c-0.4,0.6-0.7,1.3-1,1.9c-0.4,0.8-0.8,1.7-1,2.6
		c-0.2,1.1-0.4,2.3,0.1,3.4c0.2,0.5,0.4,1,0.7,1.5c0.2,0.5,0.3,1,0.2,1.6c-0.1,0.4-0.2,0.7-0.6,0.9c0-0.2,0-0.3-0.1-0.4
		c-0.3-1.3-1.1-2.1-2.4-2.5c-0.4-0.1-0.8-0.3-1.2-0.4c-0.2-0.1-0.3-0.2-0.5-0.3c-0.4-0.3-0.5-0.7-0.3-1.2c0.1-0.2,0.2-0.3,0.3-0.5
		c1.1-1.2,1.3-2.6,0.9-4.1c-0.4-1.5-1.3-2.7-2.4-3.8c-0.6-0.6-1.4-0.8-2.2-0.9c-0.8-0.1-1.6-0.2-2.4-0.4c-1.1-0.2-1.7-0.9-2-2
		C60.4,36.1,60.4,36.1,60.4,36z"/>
	<path fill="#FFFFFF" d="M57,62.4c-0.2-0.7-0.6-1.3-0.5-2.1c0-1.1,0.3-2,1.1-2.7c0.5-0.5,1.1-1,1.6-1.4c0.9-0.6,1.9-0.9,3-1
		c1-0.1,2,0,3-0.1c1.1-0.1,2.1-0.4,3-1.1c0.8-0.8,1.1-1.8,0.8-2.8c-0.1-0.4-0.4-0.7-0.8-1c0.9,0,1.7,0.2,2.2,0.9
		c0.2,0.3,0.4,0.6,0.6,0.9c0.2,0.3,0.4,0.6,0.6,0.8c0.5,0.4,1.1,0.4,1.6-0.1c0.5-0.5,0.6-1.2,0.4-1.8c-0.1-0.5-0.3-0.9-0.5-1.4
		c-0.6-1.8-0.2-3.4,0.9-4.9c0.7-1,1.7-1.6,2.9-2c0,0,0.1,0,0.1,0c-0.4,0.3-0.7,0.5-1,0.8c-1,0.8-1.8,1.8-2.1,3.1
		c-0.2,0.9-0.1,1.8,0,2.7c0.1,0.7,0.3,1.4,0.4,2.1c0.3,1.8-0.5,3.1-2,4.1c-0.9,0.6-2,0.9-3,1c-1.1,0.1-2.3,0.2-3.5,0.3
		c-2.1,0.1-4.1,0.6-6,1.6c-1.6,0.8-2.5,2.2-2.8,4C57,62.1,57,62.3,57,62.4z"/>
	<path fill="#FFFFFF" d="M76.4,38.9c0.5-0.5,1.1-0.9,1.5-1.5c1.2-2,1.5-4.1,1.3-6.3c-0.1-1.7-0.6-3.2-1.3-4.7
		c-0.1-0.3-0.2-0.5-0.2-0.8c0-1.3,0.2-2.5,0.8-3.6c0,0,0-0.1,0.1-0.1c0,0,0,0,0,0c-0.1,0.4-0.2,0.9-0.3,1.4c-0.2,1.5,0,3,0.7,4.4
		c0.1,0.3,0.3,0.6,0.4,0.8c0.8,1.2,1.2,2.5,1.4,3.9c0.2,1.1,0.4,2.2,0.4,3.3c0,1.6-0.6,2.9-1.9,3.8c-0.7,0.5-1.4,0.9-2.2,1.3
		c-1,0.6-2,1.2-2.7,2.1c-0.7,0.8-1.3,1.8-1.7,2.8c0,0.1-0.1,0.2-0.1,0.2c0.1-0.3,0.1-0.6,0.2-0.9c0.4-1.4,1.1-2.6,1.8-3.8
		c0.3-0.5,0.6-1,0.8-1.6c0.3-2,0-3.8-1.1-5.5c-0.4-0.6-0.9-1.2-1.4-1.7c-0.4-0.5-0.8-0.9-0.9-1.6c-0.1-0.6,0-1.1,0.1-1.7
		c0.1,0.4,0.1,0.7,0.2,1.1c0.2,0.9,0.7,1.7,1.4,2.3c0.4,0.3,0.7,0.6,1.1,0.9c1.5,1.2,2,2.8,1.9,4.7c0,0.3-0.2,0.6-0.3,1
		C76.4,38.8,76.4,38.9,76.4,38.9z"/>
	<path fill="#FFFFFF" d="M75.2,48.8c-0.4-1.1-0.4-2.3,0-3.4c0.4-0.9,0.9-1.7,1.7-2.3c0.5-0.3,0.9-0.7,1.4-1.1c0.1,0,0.1-0.1,0.2-0.2
		c0-0.1,0.1-0.2,0-0.2c0,0-0.1-0.1-0.2-0.1c-1,0.2-1.8,0.5-2.7,1c-1.1,0.7-2,1.5-2.7,2.6c0-0.1,0.1-0.1,0.1-0.2c0.8-1.7,2-3.1,3.7-4
		c0.8-0.4,1.5-0.9,2.3-1.3c1.1-0.7,1.9-1.7,2.2-3c0.2-0.9,0.2-1.7,0.1-2.6c-0.1-1.2-0.3-2.4-0.7-3.5c-0.2-0.7-0.6-1.4-0.9-2.1
		c-0.4-0.8-0.9-1.5-1.1-2.4c-0.4-1.5-0.3-3,0.2-4.5c-0.1,0.4-0.2,0.8-0.2,1.1c-0.2,1.5,0.1,2.9,0.9,4.2c0.5,0.8,1.1,1.6,1.7,2.4
		c0.8,1.1,1.5,2.3,1.8,3.7c0.6,3.2-0.1,6.1-2.4,8.4c-0.8,0.8-1.6,1.6-2.4,2.3c-1,0.9-1.8,2-2.4,3.2C75.4,47.6,75.3,48.2,75.2,48.8z"
		/>
	<path fill="#FFFFFF" d="M72.5,52.7c-0.3,0.1-0.5,0-0.8-0.2c-0.2-0.2-0.4-0.4-0.5-0.6c-0.2-0.3-0.4-0.7-0.7-1
		c-0.9-1-2.1-1.3-3.3-0.9c0.1,0.1,0.1,0.2,0.2,0.3c0.2,0.4,0.2,0.9-0.1,1.2c-0.3,0.3-0.8,0.3-1.1,0.1c-0.2-0.1-0.4-0.4-0.4-0.6
		c0-0.2,0-0.5,0-0.8c0.2-1.1-0.3-2.3-1.4-2.7c-0.3-0.1-0.5-0.2-0.7-0.4c0.1,0,0.1,0,0.2,0c1,0.2,1.8-0.2,2.5-0.8
		c1.5-1.2,1.7-3.3,1-4.6c-0.7-1.3-1.7-2.1-3.2-2.3c-0.5-0.1-1.1-0.2-1.6-0.3c-0.7-0.1-1.2-0.5-1.6-1.2c-0.3-0.5-0.5-1.1-0.6-1.6
		c0.2,0.3,0.4,0.7,0.7,1c0.5,0.6,1.3,0.8,2,0.9c0.8,0.1,1.5,0.3,2.3,0.4c0.6,0.1,1.1,0.4,1.5,0.7c1.2,1.1,2.1,2.4,2.4,4
		c0.3,1.3,0,2.5-0.9,3.5c-0.1,0.1-0.2,0.2-0.2,0.3c-0.4,0.6-0.4,1.3,0.2,1.7c0.3,0.2,0.7,0.4,1.1,0.5c0.3,0.1,0.6,0.2,0.9,0.3
		c1.2,0.5,1.8,1.4,2,2.6C72.5,52.6,72.5,52.7,72.5,52.7C72.5,52.7,72.5,52.7,72.5,52.7z"/>
	<path fill="#FFFFFF" d="M61.4,42.3c-0.1,0.4-0.2,0.9-0.2,1.3c-0.1,1.2,0.4,2.2,1.2,3.1c0.5,0.6,1.1,1,1.8,1.3
		c0.2,0.1,0.5,0.2,0.7,0.4c0.7,0.4,0.9,1.2,0.6,1.9c-0.1,0.2-0.1,0.4-0.2,0.7c0,0.7,0.5,1.2,1.1,1.3c0.7,0.1,1.4-0.4,1.4-1.1
		c0-0.2,0-0.5-0.1-0.7c0.6,0.4,0.9,0.9,0.8,1.6c0,0.8-0.4,1.3-1,1.8c-0.7,0.6-1.5,0.8-2.4,0.9c-0.9,0.1-1.7,0.1-2.6,0.1
		c0,0,0,0,0-0.1c0.1-0.1,0.1-0.1,0.2-0.2c1-0.8,1.2-2.1,0.6-3.2c-0.4-0.7-0.9-1.2-1.5-1.7c-1-0.8-1.8-1.8-2-3.1
		c-0.1-0.6-0.1-1.2,0.1-1.8C60.3,43.9,60.8,43.1,61.4,42.3z"/>
	<path fill="#FFFFFF" d="M57,62.7c0.2-1.7,0.7-3.2,2.3-4.2c1.1-0.6,2.2-1,3.4-1.3c1.5-0.4,3-0.5,4.5-0.6c1.4-0.1,2.8-0.2,4.2-0.7
		c0.5-0.2,1-0.5,1.4-0.8c1.4-1.1,1.9-2.5,1.6-4.2c-0.1-0.8-0.4-1.6-0.5-2.5c-0.3-1.6,0.2-2.9,1.2-4.1c0.6-0.7,1.3-1.2,2-1.7
		c0,0,0,0,0.1,0c-0.2,0.2-0.3,0.3-0.5,0.4c-0.9,0.8-1.7,1.7-2,2.9c-0.4,1.3-0.2,2.6,0.3,3.8c0.2,0.6,0.5,1.2,0.7,1.8
		c0.5,1.4,0.1,2.7-1,3.7c-0.8,0.8-1.8,1.2-2.8,1.7c-1.5,0.6-3,0.7-4.6,0.6c-1,0-2.1-0.1-3.1,0c-1.6,0.1-3.1,0.8-4.4,1.8
		c-0.3,0.2-0.5,0.4-0.8,0.6c-0.9,0.7-1.5,1.5-1.9,2.5C57.2,62.4,57.1,62.5,57,62.7C57.1,62.6,57,62.6,57,62.7z"/>
	<path fill="#FFFFFF" d="M53.1,42.7c0.6,0.6,1,1.3,1.2,2.2c0.2,1.1,0,2.2-0.5,3.2c-0.3,0.6-0.6,1.1-0.9,1.6
		c-0.8,1.1-1.1,2.3-0.9,3.7c0.1,0.8,0.5,1.3,1.3,1.6c0.1,0,0.1,0.1,0.1,0.1c0.3,1.7,0.9,3.4,1.6,5c0,0,0,0,0,0.1c0,0-0.1,0-0.1-0.1
		c-1.5-1.7-2.8-3.6-3.7-5.7c-0.4-0.9-0.6-1.8-0.5-2.7c0.1-0.7,0.3-1.4,0.7-2c0.4-0.7,0.9-1.3,1.3-1.9c0.4-0.6,0.8-1.2,1-1.9
		C53.8,44.6,53.7,43.6,53.1,42.7z"/>
	<path fill="#FFFFFF" d="M52.8,42.6c0.4,0.4,0.6,1,0.7,1.5c0.1,0.9-0.1,1.7-0.5,2.4c-0.4,0.6-0.8,1.3-1.3,1.9
		c-0.2,0.3-0.5,0.7-0.7,1c-0.9,1.5-1,3.1-0.3,4.7c0.2,0.5,0.5,1.1,0.8,1.6c0.7,1.2,1.5,2.3,2.3,3.5c0,0-0.1-0.1-0.1-0.1
		c-1-0.7-1.9-1.4-2.7-2.3c-1-1.1-1.8-2.4-2-3.9c-0.2-1.6,0.1-3.1,1.4-4.2c0.4-0.4,0.8-0.7,1.2-1.1c0.8-0.7,1.5-1.6,1.7-2.7
		C53.4,44.2,53.4,43.4,52.8,42.6C52.9,42.7,52.8,42.6,52.8,42.6z"/>
	<path fill="#FFFFFF" d="M68.1,36.8c-0.4-0.4-0.9-0.6-1.5-0.7c-0.6-0.1-1.2,0-1.8,0.2c-0.6,0.2-1.2,0.5-1.8,0.7
		c-0.5,0.2-1.1,0.1-1.6-0.2c0.5-0.7,0.9-1.4,1.5-2c0.4-0.3,0.7-0.6,1.1-0.9c0.8-0.6,1.7-0.9,2.6-0.8c0.2,0,0.4,0.2,0.5,0.3
		c0.3,0.3,0.5,0.7,0.6,1.2C68.1,35.2,68.1,36,68.1,36.8z M62.2,36.1C62.3,36.1,62.3,36.1,62.2,36.1c0.2-0.1,0.2-0.2,0.3-0.2
		c0.7-0.7,1.4-1.3,2.2-1.8c0.5-0.3,1.1-0.5,1.7-0.5c0.1,0,0.3,0,0.4-0.1c-0.2-0.2-0.5-0.2-0.9-0.1c-0.7,0.1-1.3,0.5-1.8,0.9
		C63.4,34.8,62.7,35.3,62.2,36.1z M67.9,36.2c0.1-0.8-0.1-1.9-0.6-2.3C67.5,34.7,67.7,35.4,67.9,36.2z M65.1,34.5
		c0.4-0.1,0.7-0.2,1.1-0.3c0.3-0.1,0.5,0,0.7,0.3c0.1,0.1,0.1,0.2,0.2,0.4c0,0,0,0,0.1,0c0-0.2-0.1-0.3-0.1-0.5
		c-0.1-0.2-0.3-0.3-0.5-0.3C66,34,65.5,34.2,65.1,34.5z"/>
	<path fill="#FFFFFF" d="M58.9,55.7c1.1-1.7,2.3-3.5,3.4-5.2c0.5,0.4,0.8,0.9,1.1,1.4c0,0,0,0.1-0.1,0.2c-0.9,0.9-1.7,1.8-2.4,2.9
		c0,0.1-0.1,0.1-0.2,0.1C60.1,55.3,59.5,55.5,58.9,55.7z"/>
	<path fill="#FFFFFF" d="M68,23.7c0.1,0.3,0.3,0.6,0.4,0.9c0.1,0.3,0,0.6-0.1,0.9c-0.2,0.4-0.3,0.8-0.5,1.2c-0.1,0.2,0,0.4,0,0.6
		c0,0.3,0.3,0.5,0.6,0.5c-0.1-0.2-0.5-0.2-0.4-0.5c0.1-0.2,0.2-0.4,0.3-0.6c-0.1,0.4,0.1,0.8,0.2,1.2c0.1,0.5,0,0.9-0.4,1.2
		c-0.2,0.2-0.5,0.3-0.7,0.4c-0.2,0.1-0.4,0.2-0.6,0.4c-0.1-0.2,0-0.4,0.3-0.5c-0.3-0.1-0.5-0.1-0.8,0.1c-0.2,0.1-0.2,0.4-0.2,0.6
		c0.1,0.4-0.1,0.6-0.4,0.6c-0.3,0-0.5-0.1-0.8-0.1c-0.1,0-0.2,0-0.3,0c-0.5,0.2-0.8,0.5-1,1c-0.2,0.5-0.6,0.7-1.1,0.7
		c-0.1,0-0.2,0-0.4,0c-0.4,0-0.8,0-1.2,0c0.3-0.2,0.6-0.2,0.9-0.3c0.3,0,0.5,0,0.8-0.1c0.3-0.1,0.6-0.3,0.7-0.6
		c0.1-0.2,0.2-0.3,0.4-0.4c0.2-0.1,0.4-0.3,0.6-0.5c0.1-0.2,0.3-0.1,0.5-0.1c0.2,0,0.3,0.1,0.5,0.1c0.3,0,0.5-0.2,0.6-0.5
		c0.2-0.4,0.5-0.6,0.8-0.7c0.6-0.1,0.7-0.4,0.6-1c0-0.1,0-0.1,0-0.2c-0.3-0.6-0.1-1.2,0.2-1.8c0.2-0.3,0.3-0.5,0.5-0.8
		c0.2-0.3,0.2-0.7,0.1-1.1C68,24.1,68,23.9,68,23.7C67.9,23.7,68,23.7,68,23.7z"/>
	<path fill="#FFFFFF" d="M64.5,30c0-0.1,0-0.1,0-0.2c0-0.6,0.2-1.1,0.4-1.6c0.2-0.4,0.2-0.9,0.3-1.3c0.1,0.2,0.2,0.5,0.1,0.8
		c0,0.2-0.1,0.5-0.1,0.7c0,0.3,0.2,0.5,0.4,0.6c0.3,0.1,0.5,0,0.7-0.2c0.1-0.1,0.1-0.3,0.2-0.4c0,0,0,0-0.1,0
		c-0.1,0.1-0.3,0.1-0.4,0.2c-0.1,0-0.2,0-0.3-0.1c0.1-0.1,0.1-0.2,0.2-0.2c0.3-0.2,0.5-0.6,0.4-1c-0.1-0.7-0.1-0.8,0.5-1.2
		c0.3-0.2,0.6-0.5,0.9-0.7c0.3-0.3,0.4-0.6,0.2-1.1c-0.1-0.2-0.1-0.4-0.1-0.6c0,0,0,0,0.1,0c0.1,0.3,0.2,0.7,0.2,1
		c0,0.2-0.1,0.5-0.2,0.7c-0.1,0.3-0.4,0.6-0.5,0.8c-0.4,0.6-0.5,1.2-0.2,1.8c0,0.1,0.1,0.2,0.1,0.3c0.1,0.3-0.1,0.5-0.4,0.6
		c-0.2,0-0.3,0.1-0.5,0.2c-0.2,0.1-0.4,0.3-0.5,0.5c-0.3,0.4-0.5,0.6-0.9,0.5C64.8,30.1,64.6,30.1,64.5,30z"/>
	<path fill="#FFFFFF" d="M53,28.7c-0.3-0.4-0.6-0.8-0.8-1.2c-0.3-0.4-0.5-0.9-0.3-1.4c0.1-0.3,0.2-0.5,0.3-0.8
		c0.1-0.3,0.3-0.6,0.4-0.9c0.2-0.5,0.1-1-0.2-1.4c-0.4-0.5-0.4-1-0.1-1.6c0.3-0.5,0.5-1.1,0.5-1.7c0,0,0.1,0,0.1,0
		c0,0.3-0.1,0.7-0.1,1c-0.1,0.5-0.2,0.9-0.2,1.4c0,0.3,0,0.6,0.2,0.8c0.5,0.9,0.5,1.8,0.3,2.7c-0.1,0.6-0.3,1.2-0.2,1.7
		c0,0.2,0.1,0.5,0.2,0.7C53.1,28.3,53.1,28.6,53,28.7z"/>
	<path fill="#FFFFFF" d="M69.8,38.7c1.3,0,2.9-1.6,2.9-2.7c0.4,0.5,0.5,1.5,0.3,2.1c0,0.1-0.1,0.2-0.1,0.3c-0.4,0.9-1.1,1-2,0.8
		C70.5,39.1,70.2,38.9,69.8,38.7z"/>
	<path fill="#FFFFFF" d="M53.5,49.3c-0.4,1.8-0.5,3.5-0.2,5.3c-0.3-0.1-0.5-0.3-0.7-0.5c-0.2-0.3-0.4-0.7-0.4-1
		C52,51.9,52.6,50.2,53.5,49.3z"/>
	<path fill="#FFFFFF" d="M54.8,39.5c0,0,0-0.1-0.1-0.1c0.1,0,0.1,0,0.2,0.1c0.6,0.4,0.8,1.2,0.6,2c-0.1,0.2-0.2,0.4-0.2,0.6
		c-0.1,0.3,0.1,0.5,0.3,0.6c0.2,0.1,0.4,0,0.6-0.3c0.1-0.2,0.1-0.4,0.2-0.6c0.1-0.2,0.2-0.5,0.3-0.7c-0.1,0.6-0.1,0.7,0.3,1.3
		c-0.5,0.6-1.1,1.2-1.8,1.6c-0.1,0-0.1,0.1-0.2,0.1c-0.3,0.1-0.5,0-0.4-0.3c0.1-0.4,0.2-0.9,0.3-1.3c0.1-0.5,0.3-1,0.4-1.5
		c0-0.2,0-0.4-0.1-0.7C55.1,40.1,54.9,39.8,54.8,39.5z"/>
	<path fill="#FFFFFF" d="M63.8,30.2c-0.1,0-0.2,0-0.4,0.1c0.4-0.3,0.4-0.7,0.4-1.1c0-0.4,0.2-0.7,0.4-0.9c0.3-0.3,0.6-0.6,0.7-1
		c0,0.4,0,0.8-0.2,1.2c-0.2,0.4-0.3,0.8-0.3,1.2c0,0.5-0.3,0.8-0.7,1.1c-0.2,0.1-0.4,0.3-0.5,0.5c-0.2,0.4-0.5,0.5-0.9,0.6
		c-0.5,0.1-0.9,0.1-1.3,0.1C61.9,31.2,62.8,30.6,63.8,30.2z"/>
	<path fill="#FFFFFF" d="M53,19.9c0.1,0.4,0,0.8,0,1.3c0,0.3,0,0.6,0,0.9c0,0.1,0.1,0.3,0.2,0.4c0.1,0.1,0.1,0.2,0.1,0.4
		c0,0.3,0.1,0.5,0.3,0.7c0.1,0.1,0.1,0.2,0.1,0.2c0,0.4,0.1,0.8,0.1,1.2c0,0.3,0,0.5-0.2,0.7c-0.2,0.1-0.3,0.3-0.4,0.5
		C53,26.6,53,26.8,53,27.1c0.1,0.2,0.1,0.4,0.2,0.6c0.1,0.2,0.1,0.3-0.1,0.5c-0.2-0.4-0.4-0.9-0.3-1.4c0.1-0.6,0.2-1.2,0.3-1.8
		c0.1-0.6,0.1-1.3-0.2-1.8c-0.4-0.6-0.4-1.3-0.2-2C52.9,20.8,52.9,20.3,53,19.9z"/>
	<path fill="#FFFFFF" d="M67.2,42.8c0.6,2-0.8,3.6-2.2,3.8c0.4-0.6,0.8-1.3,1.2-1.9C66.5,44.1,66.8,43.4,67.2,42.8z"/>
	<path fill="#FFFFFF" d="M49.5,49.1c-0.2,0.2-0.3,0.4-0.4,0.6c-0.6-0.3-1-1.3-0.7-2c0.1-0.4,0.3-0.7,0.6-1c0.4-0.5,0.8-1,1-1.7
		c0,0,0,0,0.1,0C50,45.4,50,45.7,49.9,46c-0.1,0.4-0.4,0.8-0.5,1.3c-0.1,0.3-0.2,0.6-0.2,0.9C49.1,48.5,49.3,48.8,49.5,49.1z"/>
	<path fill="#FFFFFF" d="M50.2,45c0.1,0.4,0.1,0.7,0,1.1c-0.1,0.2-0.1,0.4-0.1,0.7c0,0.4,0.2,0.7,0.6,0.9c0,0,0.1,0,0.2,0.1
		c-0.4,0.4-0.8,0.7-1.3,1.1c-0.2-0.1-0.3-0.5-0.2-0.9c0.1-0.4,0.2-0.7,0.4-1c0.1-0.3,0.3-0.6,0.4-1C50.1,45.7,50.2,45.3,50.2,45z"/>
	<path fill="#FFFFFF" d="M61.5,54.9c0.7-0.7,1.3-1.5,2-2.3C63.7,53.8,62.7,54.9,61.5,54.9C61.5,54.9,61.5,54.9,61.5,54.9z"/>
	<path fill="#FFFFFF" d="M54.8,39.5c0.1,0.3,0.3,0.6,0.4,0.8c0.1,0.7-0.1,1.4-0.4,2c-0.2,0.5-0.3,1-0.5,1.4
		c-0.3-0.3-0.5-0.7-0.4-1.2c0-0.1,0.2-0.3,0.3-0.3c0.5-0.3,0.8-0.8,0.8-1.3c0-0.4-0.1-0.8-0.3-1.2C54.9,39.7,54.8,39.6,54.8,39.5z"
		/>
	<path fill="#FFFFFF" d="M66.8,29.4c-0.3,0.1-0.2,0.3-0.2,0.5c0.1,0.4-0.1,0.7-0.4,0.8c-0.2,0.1-0.5,0.1-0.7,0.2c-0.4,0-0.9,0-1.3,0
		c0.1-0.2,0.4-0.3,0.6-0.4c0,0,0.1,0,0.2,0c0.2,0,0.4,0.1,0.6,0.1c0.5,0,0.7-0.2,0.7-0.7C66.2,29.6,66.4,29.4,66.8,29.4
		C66.7,29.4,66.8,29.4,66.8,29.4z"/>
	<path fill="#FFFFFF" d="M54.2,19.2c0.3,0.1,0.4,0.3,0.4,0.6c0,0.4-0.1,0.7-0.2,1.1c-0.1,0.3-0.3,0.6-0.5,0.8
		c-0.2,0.2-0.3,0.5-0.5,0.7c-0.2-0.2-0.2-0.4-0.2-0.7c0.1,0,0.1,0,0.2,0.1c0.3,0,0.5-0.1,0.5-0.4c0-0.4,0.1-0.7,0.5-1
		C54.7,20.1,54.7,19.6,54.2,19.2z"/>
	<path fill="#FFFFFF" d="M54.5,19.2c0.3,0.1,0.5,0.4,0.4,0.8c0,0.1-0.1,0.2-0.1,0.4c0,0.3,0.1,0.4,0.4,0.4c0.1,0,0.2,0,0.3,0
		c-0.4,0.2-0.7,0.4-1.1,0.5c0.1-0.3,0.2-0.7,0.3-1C54.8,19.9,54.7,19.5,54.5,19.2z"/>
	<path fill="#FFFFFF" d="M55.3,25.9c-0.1,0-0.3-0.1-0.5-0.1c0.1,0.1,0.2,0.1,0.3,0.2c-0.6,0.1-1-0.6-1.1-1.3
		C54.6,25.4,54.9,25.7,55.3,25.9C55.3,25.8,55.3,25.8,55.3,25.9z"/>
	<path fill="#FFFFFF" d="M55,25.1c-0.2,0.2-0.3,0.2-0.4,0c-0.1-0.2-0.2-0.5-0.2-0.8c0,0,0,0,0.1,0c0,0.1,0,0.1,0,0.2
		c0,0.2,0.1,0.3,0.3,0.3c0,0,0.1,0,0.1,0.1C55,25,55,25,55,25.1z"/>
	<path fill="#FFFFFF" d="M66.1,28.7c-0.2,0.2-0.4,0.2-0.6,0.2c-0.2-0.1-0.3-0.2-0.3-0.4c0.1,0,0.2,0,0.3,0
		C65.7,28.7,65.7,28.7,66.1,28.7z"/>
	<path d="M67.6,25.3c-0.3-0.1-0.6-0.1-0.9-0.2c-0.8-0.2-1.6-0.3-2.5-0.4c0.1,0.1,0.2,0.2,0.3,0.2c0.1,0.1,0.2,0.2,0.3,0.4
		c0.2,0.4,0.2,0.6-0.2,0.9c-0.4,0.3-0.9,0.5-1.3,0.8c-0.5,0.3-1,0.5-1.6,0.4c-0.4-0.1-0.8,0-1.3,0c-0.3,0-0.6,0-0.9-0.2
		C59.3,27,59.1,27,58.8,27c-0.5,0.1-0.9-0.2-1-0.7c0-0.1-0.1-0.2-0.1-0.4c0.2,0,0.2,0.2,0.3,0.3c0.2,0.4,0.4,0.5,0.8,0.4
		c0.2,0,0.4-0.1,0.6-0.2c0.3-0.2,0.7-0.4,1-0.7c0.5-0.3,0.9-0.7,1.4-1c0.6-0.4,1.2-0.6,1.9-0.5c1,0,2,0.2,2.9,0.5
		C67,24.9,67.3,25.1,67.6,25.3C67.6,25.3,67.6,25.3,67.6,25.3z M63.2,26.3c0.1,0,0.2-0.1,0.2-0.1c0.3-0.1,0.5-0.3,0.8-0.4
		c0.1-0.1,0.3-0.2,0.3-0.5c-0.1,0.1-0.2,0.2-0.3,0.3c0-0.1,0.1-0.2,0.1-0.2c0,0,0-0.1,0-0.2c0,0-0.1,0-0.1,0c-0.1,0-0.2,0.1-0.3,0.1
		c0,0,0,0,0,0c0.1-0.1,0.2-0.1,0.3-0.2c0,0,0,0,0-0.1c-0.2,0.1-0.3,0.2-0.5,0.3c0,0,0,0,0,0c0.1-0.1,0.2-0.2,0.4-0.3
		c0,0,0-0.1-0.1-0.1c-0.1,0.1-0.3,0.2-0.4,0.3c-0.1,0.2-0.1,0.4-0.2,0.7c0.1,0,0.2-0.1,0.2-0.1c-0.7,0.6-1.4,1.2-2.3,1.3
		c0.2,0,0.3,0,0.5,0.1c0.4,0.1,0.8,0,1.2-0.3c0.4-0.2,0.7-0.4,1.1-0.6c0.2-0.1,0.3-0.2,0.5-0.3c0.1,0,0.1-0.1,0.1-0.2c0,0,0,0,0,0
		c-0.5,0.2-0.9,0.5-1.4,0.7c0,0,0,0,0-0.1c0.3-0.2,0.6-0.3,1-0.5c0.2-0.1,0.4-0.2,0.4-0.5C64.2,25.9,63.7,26.1,63.2,26.3z
		 M61.1,25.8c0.2,0.4,0.6,0.6,1,0.5c0.5-0.1,0.7-0.7,0.4-1.1c-0.1-0.1-0.2-0.1-0.3-0.1C61.8,25.3,61.4,25.6,61.1,25.8z M60.7,26.1
		c-0.3,0.2-0.6,0.3-0.8,0.5c0.2,0.3,0.9,0.4,1.4,0.2C61,26.6,60.8,26.4,60.7,26.1z M62.8,26c0.4-0.4,0.4-0.7,0.1-1.1
		c-0.1-0.1-0.2-0.2-0.4-0.1C62.9,25.2,63,25.6,62.8,26z"/>
	<path d="M66.9,23.6c-0.2-0.1-0.4-0.2-0.7-0.3c-0.7-0.4-1.4-0.6-2.2-0.8c-0.7-0.1-1.3,0-1.9,0.3C61,23.6,60,24.2,59,25.1
		c-0.1,0.1-0.2,0.2-0.4,0.1c0,0-0.1,0-0.1,0c-0.1,0.1-0.2,0-0.3-0.1c-0.2,0.2-0.4,0.3-0.6,0.5c0.2-0.3,0.3-0.6,0.6-0.8
		c0,0,0.1,0,0.2,0c0.3,0.2,0.4,0.2,0.7,0c0.9-0.9,2-1.6,3.1-2.1c0.8-0.4,1.7-0.4,2.5-0.1c0.7,0.3,1.4,0.6,2.1,0.9
		C66.8,23.4,66.9,23.5,66.9,23.6C66.9,23.6,66.9,23.6,66.9,23.6z"/>
	<path d="M77,30.6c0-0.1-0.1-0.3-0.1-0.4c-0.2-1.3-0.8-2.5-1.4-3.6c-0.6-1-1.3-2-1.9-3.1c-0.2-0.3-0.4-0.5-0.7-0.5c0,0,0-0.1,0-0.1
		c0.1,0.1,0.3,0.1,0.4,0.2c0.1,0.1,0.2,0.2,0.3,0.3c1.1,1.6,2.2,3.3,3,5.1c0.3,0.6,0.5,1.2,0.4,1.8C77.1,30.4,77.1,30.5,77,30.6
		C77,30.6,77,30.6,77,30.6z"/>
	<path d="M57.2,33.4c-0.1,0.2-0.3,0.1-0.5,0.1c-0.3-0.1-0.5-0.1-0.8,0c-0.4,0.1-0.8,0.1-1.2,0.2c-0.1,0-0.2,0-0.2,0c0,0,0,0,0-0.1
		c0.1,0,0.2-0.1,0.3-0.1c0.3,0.1,0.5,0,0.8-0.2c0.4-0.2,0.7-0.5,1.1-0.7c0.1-0.1,0.3-0.1,0.4-0.1c0.3,0,0.4,0.2,0.3,0.4
		C57.4,33.1,57.3,33.3,57.2,33.4L57.2,33.4z"/>
	<path d="M57.2,33.4c0.2-0.2,0.5-0.3,0.7-0.5c0.2-0.1,0.4-0.3,0.3-0.6c-0.1-0.4-0.3-0.6-0.6-0.6c-0.6-0.1-1.1,0.1-1.6,0.5
		c-0.1,0.1-0.2,0.2-0.4,0.3c-0.1,0.1-0.2,0.1-0.3,0.1c-0.2,0-0.3,0.1-0.5,0.2c-0.1,0.1-0.3,0.2-0.5,0.3c0,0,0-0.1-0.1-0.1
		c0.2-0.2,0.5-0.4,0.7-0.6c0,0,0.1,0,0.1,0c0.3,0.2,0.4-0.1,0.6-0.2c0.5-0.4,1-0.7,1.7-0.7c0.4,0,0.8,0.1,1,0.6
		c0.1,0.3,0.1,0.6-0.1,0.8c-0.1,0.1-0.3,0.2-0.4,0.3c-0.2,0.2-0.5,0.4-0.7,0.5C57.2,33.7,57.2,33.5,57.2,33.4
		C57.2,33.4,57.2,33.4,57.2,33.4z"/>
	<path d="M73.7,29.1c0,0.6,0.3,1,0.7,1.4c0.7,0.7,1.3,1.4,2,2.1c0.4,0.4,0.8,0.9,0.9,1.5c0,0.1,0.1,0.1,0.1,0.2
		c0.2-0.9,0.1-1.7,0-2.6c0,0,0.1,0,0.1,0c0.1,0.3,0.1,0.6,0.1,0.9c0,0.6,0,1.2-0.1,1.8c0,0.2-0.1,0.3-0.3,0.1
		c-0.1-0.1-0.2-0.2-0.2-0.3c-0.2-0.7-0.6-1.2-1.1-1.6c-0.7-0.7-1.3-1.4-1.9-2.1C73.9,29.9,73.7,29.6,73.7,29.1z"/>
	<path d="M77.8,29.9c0.1,0.5,0.2,0.9,0.3,1.4c0.2,1.4,0,2.8-0.3,4.2c0,0.2-0.1,0.4-0.2,0.6c-0.1,0.1-0.2,0.2-0.3,0.3
		c0,0,0,0-0.1-0.1c0-0.3-0.1-0.6-0.1-1c0,0,0,0,0,0c0.1,0.2,0.1,0.5,0.2,0.7c0.4-1,0.5-2,0.6-3c0.1-1-0.1-2.1-0.3-3.1
		C77.8,29.9,77.8,29.9,77.8,29.9z"/>
	<path d="M69.8,31.8c-0.1,0.3-0.1,0.5-0.2,0.7c-0.2,1-0.2,2.1,0,3.1c0.1,0.2,0.1,0.5,0.1,0.7c0,0.4,0.3,0.6,0.7,0.6
		c0.7-0.1,0.9-0.5,0.6-1.1c-0.1-0.1-0.1-0.3-0.2-0.4c0.4,0.3,0.6,1,0.4,1.3c-0.2,0.3-0.9,0.5-1.2,0.4c-0.2-0.1-0.3-0.2-0.3-0.4
		c-0.1-0.6-0.2-1.3-0.3-1.9c-0.1-1,0-1.9,0.3-2.8C69.7,31.9,69.8,31.9,69.8,31.8C69.8,31.8,69.8,31.8,69.8,31.8z"/>
	<path d="M72.9,11.4c0.1-0.3,0.3-0.3,0.6-0.1c0.2,0.2,0.3,0.4,0.3,0.7c0,0.3,0,0.7-0.2,1c-0.4,1-0.8,1.9-1.1,2.8
		c-0.6,1.6-1,3.2-1.3,4.9c0,0.3-0.1,0.6-0.2,0.9c0,0,0,0-0.1,0.1c0-0.3,0-0.5,0.1-0.7c0.3-2.2,0.9-4.3,1.7-6.3
		c0.3-0.6,0.5-1.2,0.7-1.9c0.1-0.4,0.2-0.8,0.1-1.2c0-0.1-0.1-0.3-0.3-0.4C73.2,11.2,73,11.2,72.9,11.4z"/>
	<path d="M75.9,33.1c-0.5-0.4-0.9-0.8-1.4-1.1c-0.8-0.7-1.5-1.5-1.7-2.6c-0.1-0.4,0-0.8,0.1-1.2c0-0.1,0-0.1,0.1-0.2
		c0,0,0,0,0.1-0.1c0,0.1,0,0.1,0,0.1c-0.3,1.3,0.1,2.4,1,3.3c0.3,0.3,0.6,0.6,1,0.8c0.2,0.2,0.4,0.4,0.7,0.6
		C75.8,32.9,75.8,33,75.9,33.1z"/>
	<path d="M70.6,30.8c0.1,1.4,0.7,2.7,1.2,4c0.1,0.3,0.2,0.6,0.3,1c0.1,0.5-0.1,0.9-0.4,1.2c-0.4,0.4-0.9,0.6-1.4,0.8
		c-0.2,0.1-0.4,0-0.4-0.2c0.8,0.1,1.3-0.3,1.8-0.8c0.3-0.3,0.4-0.8,0.3-1.2c-0.2-0.5-0.4-1.1-0.6-1.6c-0.3-0.8-0.5-1.6-0.7-2.4
		C70.5,31.4,70.5,31.1,70.6,30.8C70.5,30.8,70.5,30.8,70.6,30.8z"/>
	<path d="M68.2,18c0.2-0.2,0.5-0.4,0.7-0.6c1.6-1.4,2.9-3.1,3.8-5c0.1-0.2,0.2-0.4,0.3-0.6c0-0.1,0.1-0.1,0.2-0.1
		c0.1,0,0.1,0.1,0.1,0.2c0,0.4,0,0.8-0.3,1.2c0.1-0.3,0.2-0.6,0.2-0.8c0-0.1,0-0.3-0.1-0.4C73.1,12,73,12.1,73,12.2
		c-0.8,1.5-1.7,3-2.9,4.3C69.5,17,68.9,17.5,68.2,18C68.2,18.1,68.2,18,68.2,18z"/>
	<path d="M56.7,24.4c0.2,0.4,0.3,0.8,0.1,1.2c0,0-0.1,0-0.1,0c0-0.1,0-0.1,0-0.2c0-0.2,0-0.3,0-0.5c0-0.3-0.2-0.4-0.4-0.2
		c-0.1,0-0.1,0.1-0.2,0.1c0.1-0.1,0.1-0.2,0.2-0.3c0.1-0.1,0.1-0.2,0-0.3c-0.1-0.5-0.2-1-0.3-1.4c-0.1-0.3-0.2-0.7-0.4-1
		c0-0.1,0-0.1,0-0.2c0.1,0,0.1,0,0.2,0.1c0.3,0.3,0.4,0.7,0.4,1c0,0.3,0.1,0.6,0.1,1C56.3,24,56.4,24.3,56.7,24.4L56.7,24.4z"/>
	<path d="M69.9,30.8c-0.2,0.3-0.3,0.6-0.5,1c-0.4,0.8-0.7,1.6-0.6,2.5c0.1,0.6,0.2,1.2,0.2,1.9c0,0.3,0,0.6,0,1c0,0,0,0.1-0.1,0.1
		c0,0,0-0.1,0-0.1c-0.1-0.9-0.1-1.8-0.2-2.7c-0.1-0.7,0-1.3,0.3-2C69.3,31.9,69.6,31.4,69.9,30.8C69.9,30.8,69.9,30.8,69.9,30.8z"/>
	<path d="M57.5,18.5c1-2.4,2.6-4.4,4.4-6.3C60.2,14.1,58.6,16.1,57.5,18.5z"/>
	<path d="M58.8,26.3c0.2-0.1,0.4-0.2,0.5-0.3c0.6-0.4,1.2-0.9,1.7-1.3c0.8-0.6,1.7-0.9,2.8-0.8c0.3,0,0.5,0.1,0.8,0.1
		c-0.2,0-0.4,0-0.5,0c-1-0.1-2,0.2-2.8,0.8c-0.6,0.4-1.2,0.9-1.8,1.3C59.3,26.2,59.1,26.4,58.8,26.3z"/>
	<path d="M64.9,23.3c-0.1,0-0.2,0-0.3-0.1c-1.1-0.5-2.2-0.2-3.1,0.5c-0.7,0.4-1.3,1-1.9,1.4c-0.2,0.1-0.4,0.2-0.6,0.3
		c0.4-0.3,0.7-0.5,1-0.8c0.4-0.3,0.8-0.6,1.2-0.9c0.6-0.4,1.2-0.7,1.9-0.8c0.3,0,0.6,0,0.8,0C64.2,23,64.6,23.1,64.9,23.3
		C64.9,23.3,64.9,23.3,64.9,23.3z"/>
	<path d="M63,12.2c-0.2,0.3-0.3,0.6-0.5,0.8c-0.5,0.9-1,1.9-1.3,2.9c-0.1,0.3-0.3,0.7-0.4,1c-0.1,0.2-0.3,0.3-0.4,0.5c0,0,0,0-0.1,0
		c0,0,0-0.1,0.1-0.1c0.4-0.3,0.6-0.7,0.7-1.2C61.4,14.7,62.2,13.5,63,12.2C63,12.2,63,12.2,63,12.2C63,12.2,63,12.2,63,12.2z"/>
	<path d="M70.8,16.1c-1.2,1.6-2.8,2.7-4.4,3.8C68,18.8,69.6,17.6,70.8,16.1z"/>
	<path d="M61.6,17.7c0.8-0.2,1.6-0.2,2.5-0.1c0.6,0,1.2,0.1,1.7,0.1c0.2,0,0.5,0.1,0.7,0.2c0.3,0.1,0.3,0.4,0,0.6
		c-0.1,0-0.1,0.1-0.2,0.1c0.1-0.1,0.1-0.1,0.2-0.2c0.2-0.2,0.2-0.3,0-0.4c-0.2-0.1-0.4-0.2-0.6-0.2c-1.3-0.1-2.5-0.3-3.8-0.2
		C61.9,17.7,61.7,17.7,61.6,17.7z"/>
	<path d="M71.7,21.9c0-0.5,0.5-0.9,1-0.6c0.2,0.1,0.3,0.2,0.4,0.4c0.5,0.5,0.9,1.1,1.4,1.6c0.2,0.2,0.4,0.5,0.6,0.7c0,0,0,0.1,0,0.2
		c0,0-0.1-0.1-0.1-0.1c-0.3-0.4-0.7-0.8-1-1.2c-0.3-0.3-0.6-0.7-0.8-1c-0.1-0.1-0.2-0.2-0.3-0.3C72.6,21.1,72,21.3,71.7,21.9
		C71.8,21.9,71.8,21.9,71.7,21.9z"/>
	<path d="M65.1,32.1c0.4-0.1,0.8-0.1,1.2-0.3c0.3-0.1,0.5-0.2,0.7-0.4c0.6-0.6,1.3-1.3,1.9-2c0.2-0.2,0.3-0.5,0.5-0.8
		c0,0.2-0.1,0.4-0.1,0.5c-0.1,0.1-0.2,0.3-0.3,0.4c-0.6,0.6-1.2,1.3-1.8,1.9c-0.3,0.3-0.6,0.5-0.9,0.5C65.9,32,65.5,32,65.1,32.1
		C65.1,32.1,65.1,32.1,65.1,32.1z"/>
	<path d="M69.2,26c0.1,0.2,0.2,0.4,0.3,0.6c0.1,0.2,0.3,0.3,0.5,0.4c0.5,0.1,0.6,0.2,0.7,0.7c0,0.2,0,0.3,0.1,0.5
		c0.1,0.5,0,0.9-0.4,1.3c-0.3,0.3-0.5,0.7-0.8,1.1c0.1-0.1,0.1-0.3,0.2-0.4c0.2-0.3,0.5-0.6,0.7-1c0.1-0.2,0.2-0.4,0.2-0.5
		c0-0.3,0-0.7-0.1-1c-0.1-0.3-0.2-0.5-0.5-0.5c-0.3,0-0.5-0.2-0.6-0.5C69.3,26.4,69.2,26.2,69.2,26C69.2,26,69.2,26,69.2,26z"/>
	<path d="M60.7,28.7c-0.1,0-0.2,0-0.2,0.1c-0.2,0.1-0.3,0.2-0.4,0.3c-0.2,0.1-0.3,0.3-0.5,0.4c-0.5,0.3-1,0.5-1.5,0.8
		c0,0-0.1,0-0.1,0c0.1-0.1,0.1-0.1,0.2-0.2c0.4-0.2,0.8-0.4,1.2-0.6c0.3-0.1,0.5-0.3,0.7-0.5C60.1,28.7,60.4,28.6,60.7,28.7z"/>
	<path d="M54.3,36c0.1,0.1,0.2,0.1,0.3,0.1c0.1,0,0.3,0.1,0.4,0.1c0,0,0.1,0,0.2,0c0.3,0.1,0.5,0,0.8-0.1c0.7-0.2,1.3-0.5,1.8-1.1
		c0,0,0,0,0,0c-0.1,0.1-0.2,0.3-0.4,0.4c-0.5,0.5-1.2,0.7-1.9,0.8c-0.4,0-0.8,0.1-1.1-0.2C54.5,36,54.4,36,54.3,36
		C54.3,36,54.3,36,54.3,36z"/>
	<path d="M53.9,22.2C53.9,22.3,53.9,22.3,53.9,22.2c-0.1,0.6,0.2,1,0.6,1.3c0.1,0.1,0.2,0.2,0.4,0.3c0.3,0.3,0.5,0.6,0.6,1.1
		c0,0.2,0.2,0.4,0.3,0.7c-0.1-0.2-0.2-0.3-0.2-0.4c-0.2-0.8-0.7-1.4-1.3-1.9C53.8,23.1,53.8,22.7,53.9,22.2z"/>
	<path d="M62.4,23.5c0.5-0.2,1-0.3,1.5-0.2c0.8,0.2,1.6,0.5,2.4,0.8c0.1,0,0.2,0.1,0.3,0.2c0,0,0,0,0,0c-0.1,0-0.2-0.1-0.3-0.1
		c-0.7-0.2-1.4-0.5-2.1-0.7c-0.5-0.2-1.1-0.1-1.6,0C62.6,23.4,62.5,23.5,62.4,23.5C62.4,23.5,62.4,23.5,62.4,23.5z"/>
	<path d="M54.9,28.2c0.3,0.9-0.1,1.7-0.6,2.4c-0.2,0.3-0.4,0.6-0.7,0.9c0.1-0.1,0.1-0.2,0.2-0.3c0.2-0.3,0.4-0.6,0.6-0.9
		c0.4-0.6,0.6-1.2,0.5-1.9C54.9,28.4,54.9,28.3,54.9,28.2z"/>
	<path d="M57.3,28.9c-1,0.8-1.7,1.9-2.2,3C55.5,30.7,56.2,29.7,57.3,28.9z"/>
	<path d="M53.9,26.3c-0.2,0.5-0.2,1.1,0,1.6c0,0.1,0,0.3,0,0.5c-0.2,0.5-0.4,0.9-0.6,1.3c0-0.3,0.1-0.6,0.3-0.9
		c0.2-0.4,0.3-0.7,0.2-1.1C53.6,27.2,53.6,26.7,53.9,26.3z"/>
	<path d="M61.5,30.8c0.3-0.2,0.6-0.3,0.9-0.5c0.4-0.2,0.6-0.5,0.7-0.9c0.1-0.4,0.3-0.7,0.4-1c0,0,0,0,0.1,0c0,0,0,0.1,0,0.1
		c-0.2,0.3-0.3,0.7-0.4,1.1c0,0.2-0.2,0.5-0.4,0.6C62.3,30.4,61.9,30.6,61.5,30.8C61.5,30.8,61.5,30.8,61.5,30.8z"/>
	<path d="M59.2,27.8C59.2,27.8,59.2,27.8,59.2,27.8c0.3,0.3,0.6,0.4,0.9,0.2c0,0,0.1,0,0.1,0c0.5,0.1,1,0.1,1.5,0.2c0,0,0,0,0,0.1
		c-0.4,0-0.8-0.1-1.3-0.1c-0.1,0-0.3,0-0.4,0c-0.3,0.1-0.5,0.1-0.8-0.2C59.2,27.9,59.2,27.9,59.2,27.8
		C59.1,27.8,59.1,27.8,59.2,27.8z"/>
	<path d="M58.9,18.9c-0.9,0.5-1.8,0.9-2.5,1.7C57.1,19.8,57.9,19.3,58.9,18.9z"/>
	<path d="M58.6,19.4c-1,0.5-1.9,1.2-2.6,2.2C56.1,21.1,57.8,19.6,58.6,19.4z"/>
	<path d="M54.3,27.1c0.1,0.1,0.2,0.3,0.2,0.4c0.1,0.1,0.2,0.2,0.1,0.3c0,0.4-0.1,0.8-0.1,1.1c0,0,0,0-0.1,0c0-0.2,0-0.4,0-0.6
		c0-0.1,0.1-0.3,0-0.4c0-0.2-0.1-0.4-0.2-0.6C54.3,27.3,54.2,27.2,54.3,27.1z"/>
	<path d="M63,32.4c-0.2,0.2-0.5,0.2-0.8,0.2c-0.1,0-0.2,0-0.3,0c-0.6-0.1-1.1,0.1-1.6,0.4c0,0-0.1,0-0.1,0c0.4-0.3,0.8-0.6,1.3-0.5
		C62,32.6,62.5,32.6,63,32.4z"/>
	<path d="M53.9,37.5c0-0.2,0.1-0.2,0.2-0.2c0.1,0,0.3,0.1,0.4,0.1c0.4,0.1,0.8,0.1,1.2-0.2c0.3-0.2,0.7-0.4,1-0.5c0,0,0,0,0,0.1
		c-0.5,0.2-0.9,0.5-1.4,0.7c-0.4,0.2-0.8,0-1.2-0.1C54.1,37.4,54,37.3,53.9,37.5z"/>
	<path d="M59.3,28.9c0,0,0.1-0.1,0.1-0.1c0.2,0.1,0.3-0.1,0.4-0.2c0.1-0.1,0.2-0.1,0.3-0.1c0.5,0,1.1,0,1.6,0c0.1,0,0.1,0,0.2,0.1
		c-0.3,0-0.6,0-1-0.1c-0.2,0-0.4,0-0.6,0c-0.2,0-0.4,0.1-0.6,0.3c-0.1,0.1-0.2,0.3-0.4,0.1C59.4,28.9,59.4,28.9,59.3,28.9
		C59.3,28.9,59.3,28.9,59.3,28.9z"/>
	<path d="M59.9,17.3C60,17.3,60,17.2,59.9,17.3c0.7-0.5,1-1,1.1-1.7c0.1-0.3,0.2-0.6,0.3-0.8c-0.1,0.4-0.2,0.8-0.4,1.3
		c-0.1,0.5-0.4,0.9-0.8,1.2C60.2,17.2,60.1,17.3,59.9,17.3C60,17.3,60,17.3,59.9,17.3z"/>
	<path d="M56.8,21c0,0.6-0.2,1.1,0.1,1.7c0.1,0.2,0.1,0.5,0.2,0.7c0,0-0.1,0-0.1,0c-0.1-0.5-0.2-0.9-0.3-1.4c0-0.2,0-0.4,0-0.7
		C56.7,21.2,56.8,21.1,56.8,21z"/>
	<path d="M54.3,21.9C54.3,21.9,54.3,21.9,54.3,21.9c-0.2,0.7,0,1.2,0.5,1.6c0.1,0.1,0.2,0.2,0.3,0.3c0,0,0,0,0,0
		c-0.2-0.2-0.5-0.4-0.7-0.6C54,22.8,54,22.3,54.3,21.9z"/>
	<path d="M57.7,18.6c0.4-0.8,0.8-1.5,1.2-2.3c0,0,0,0,0.1,0C58.6,17.1,58.2,17.8,57.7,18.6C57.8,18.6,57.7,18.6,57.7,18.6z"/>
	<path d="M54.6,26.3c0.5,0.1,1.1-0.1,1.6,0.3C55.6,26.5,55.1,26.4,54.6,26.3C54.6,26.3,54.6,26.3,54.6,26.3z"/>
	<path d="M51.9,33.6c0.2,0.3,0.2,0.8,0.2,1.2c0,0.1,0,0.2,0,0.3c0.1,0.2,0.1,0.3,0.2,0.5c-0.1-0.1-0.2-0.1-0.2-0.2
		c-0.1-0.2-0.1-0.3-0.1-0.5C52,34.5,52,34,51.9,33.6z"/>
	<path d="M55.2,38.1c0.4-0.1,0.7-0.3,1.1-0.4c0.2-0.1,0.4-0.1,0.6-0.1c0.3-0.1,0.5-0.2,0.7-0.4c0,0.3-0.2,0.4-0.4,0.4
		c-0.4,0.1-0.8,0.2-1.1,0.3C55.7,37.9,55.4,38,55.2,38.1L55.2,38.1z"/>
	<path d="M61.8,27.9c-0.4,0-0.7-0.1-1.1-0.1c-0.3-0.1-0.7-0.2-1-0.3c0.3,0.1,0.6,0,0.8,0.2c0.2,0.1,0.5,0.1,0.8,0.2
		C61.5,27.8,61.7,27.9,61.8,27.9C61.9,27.9,61.8,27.9,61.8,27.9z"/>
	<path d="M58,27.1c0.3,0.1,0.6,0.1,0.8,0.2c0.2,0.1,0.4,0.1,0.6,0.2c0.1,0,0.1,0.1,0.1,0.2c0,0-0.1,0-0.1-0.1
		c-0.3-0.3-0.6-0.4-0.9-0.4C58.3,27.2,58.2,27.1,58,27.1z"/>
	<path d="M57.5,34.8c-0.1,0.3-0.7,0.8-1.1,0.8C56.8,35.4,57.2,35.1,57.5,34.8z"/>
	<path d="M55.2,38.1c0,0-0.1,0.1-0.1,0.1c-0.3,0.1-1.1-0.2-1.3-0.5C54.2,37.9,54.6,38.1,55.2,38.1C55.2,38.1,55.2,38.1,55.2,38.1z"
		/>
	<path d="M57.6,26.7c-0.3-0.1-0.6-0.2-0.9-0.3C57,26.3,57.4,26.5,57.6,26.7z"/>
	<path d="M55.6,22.3c0.1,0.5,0.2,1,0.2,1.5c0,0,0,0-0.1,0C55.7,23.3,55.6,22.8,55.6,22.3C55.6,22.3,55.6,22.3,55.6,22.3z"/>
	<path d="M56,25.1c0.1-0.1,0.3-0.1,0.4-0.2c0,0.1,0.1,0.3,0.1,0.4c0,0.1,0,0.2-0.1,0.4c0-0.1,0-0.3,0-0.4c0-0.1,0-0.1,0-0.2
		c-0.1,0-0.1,0.1-0.2,0.1C56.1,25.1,56.1,25.1,56,25.1C56.1,25.1,56,25.1,56,25.1z"/>
	<path d="M68.5,29.6c-0.3,0.3-0.6,0.7-1,1c0,0,0,0,0,0C67.8,30.3,68.2,30,68.5,29.6C68.5,29.6,68.5,29.6,68.5,29.6z"/>
	<path d="M56.7,24.4c0-0.1-0.1-0.2-0.1-0.2c-0.1-0.1-0.1-0.2-0.2-0.4c0.1,0.4,0.6,0.6,0.6,1C56.9,24.7,56.8,24.5,56.7,24.4
		C56.7,24.4,56.7,24.4,56.7,24.4z"/>
	<path d="M56.4,32.6c-0.3,0.2-0.7,0.3-1,0.5c0,0,0,0,0-0.1C55.7,32.8,56.1,32.7,56.4,32.6C56.4,32.5,56.4,32.5,56.4,32.6z"/>
	<path d="M57.6,33c0.1-0.3,0.5-0.4,0.4-0.8C58.2,32.4,58.1,32.6,57.6,33z"/>
	<path d="M54.5,27c0.3,0.1,0.4,0.3,0.3,0.6c-0.1-0.2,0-0.4-0.3-0.4C54.5,27.1,54.5,27,54.5,27z"/>
	<path d="M57.9,25.5c0.2-0.1,0.6,0,0.6,0.2C58.3,25.6,58.1,25.5,57.9,25.5z"/>
	<path d="M57,26.1c0.4,0,0.5,0,0.5,0.2C57.3,26.3,57.2,26.2,57,26.1z"/>
	<path d="M55.3,45.5c-0.2,1-0.4,1.9-0.6,2.9c-0.4,2.2-0.4,4.4,0,6.6c0.2,1.1,0.4,2.1,0.6,3.2c0,0.1,0,0.1,0,0.2
		c-0.4-0.6-1.1-4.4-1.1-6.5C54.2,49.7,54.7,47.6,55.3,45.5z"/>
	<path d="M55.7,59c0.2-1,0.6-1.9,1.4-2.7c-0.1,0-0.2,0-0.4,0c0-0.2,0.1-0.4,0.3-0.4c0.3-0.1,0.5-0.3,0.6-0.6
		c0.6-1.4,1.3-2.7,2.2-3.9c0.1-0.2,0.3-0.4,0.4-0.5c0-0.1,0.1-0.1,0.2-0.1c0,0,0,0,0.1,0c0,0.1-0.1,0.1-0.1,0.2
		c-0.5,0.8-1.1,1.5-1.6,2.3c-0.3,0.6-0.6,1.2-0.9,1.8c-0.2,0.4-0.3,0.9-0.9,0.9c0,0,0,0,0,0.1c0,0,0.1,0,0.1,0c0,0,0.1,0,0.1,0
		c0.1,0,0.1,0,0.2,0.1c0,0,0,0.1-0.1,0.1c-0.2,0.2-0.5,0.4-0.6,0.6c-0.3,0.5-0.5,1-0.8,1.5C56,58.6,55.9,58.8,55.7,59
		C55.8,59,55.7,59,55.7,59z"/>
	<path d="M56.2,47.6c-0.1-0.8,0-1.5,0.1-2.3c0-0.2,0.1-0.3,0.1-0.5c0.1-0.6,0.3-1,0.7-1.5c1-1.2,2-2.5,2.9-3.7
		c0.1-0.1,0.1-0.2,0.2-0.2c0,0,0,0.1-0.1,0.1c-0.9,1.4-1.9,2.7-3.1,4c-0.4,0.4-0.6,0.9-0.6,1.5c-0.1,0.7-0.2,1.4-0.2,2.1
		C56.3,47.4,56.2,47.5,56.2,47.6z"/>
	<path d="M55,52.3c-0.3-2.8,0.1-5.5,1.1-8.1c-0.3,1.3-0.7,2.7-0.9,4C55.1,49.6,55,51,55,52.3z"/>
	<path d="M59.9,50.3c-0.1-0.1-0.2-0.1-0.3-0.2c0,0-0.1,0-0.2,0c0,0.1,0,0.1,0,0.2c0.2,0.3,0.2,0.3,0,0.6c-0.3,0.4-0.5,0.8-0.8,1.3
		c0,0.1-0.1,0.2-0.1,0.3c0,0,0,0-0.1,0c0-0.1,0-0.1,0.1-0.2c0.3-0.4,0.5-0.9,0.8-1.3c0.1-0.2,0.2-0.3,0-0.5c0,0,0,0,0,0
		c0-0.1,0-0.2-0.1-0.3c0.1,0,0.2,0,0.3,0c0,0,0.1,0,0.1,0.1c-0.8-1.9-1.1-3.8-0.2-5.8C58.7,46.4,59,48.3,59.9,50.3
		C60,50.3,60,50.3,59.9,50.3z"/>
	<path d="M64.2,46.2c0,0.1-0.1,0.2-0.1,0.2c-0.4,0.1-0.8,0.1-1.2-0.1c0.3,0,0.6,0,0.9,0c0-0.1-0.1-0.1-0.1-0.2
		c0.6,0,0.8-0.4,0.9-0.8c0.5-0.9,0.9-1.8,1.3-2.8c0-0.1,0.1-0.2,0.1-0.2c0,0,0,0,0.1,0c0,0.1,0,0.2,0,0.2c-0.3,0.7-0.7,1.4-1,2.1
		c-0.2,0.4-0.4,0.8-0.7,1.1C64.4,46,64.3,46.1,64.2,46.2z"/>
	<path d="M64.4,44.8c0.5-1,1-1.9,1.5-2.8C65.6,42.9,65.1,43.9,64.4,44.8z"/>
	<path d="M62.2,36.1c0.5-0.8,1.2-1.4,1.9-1.9c0.6-0.4,1.1-0.8,1.8-0.9c0.3-0.1,0.7,0,0.9,0.1c-0.2,0-0.3,0-0.4,0.1
		c-0.6,0-1.2,0.2-1.7,0.5c-0.8,0.5-1.6,1.1-2.2,1.8C62.4,35.9,62.3,36,62.2,36.1C62.3,36.1,62.3,36.1,62.2,36.1z"/>
	<path d="M67.9,36.2c-0.2-0.7-0.4-1.5-0.6-2.3C67.8,34.3,68,35.4,67.9,36.2z"/>
	<path d="M65.1,34.5c0.4-0.3,0.8-0.5,1.3-0.6c0.2,0,0.4,0.1,0.5,0.3c0.1,0.2,0.1,0.3,0.1,0.5c0,0,0,0-0.1,0
		c-0.1-0.1-0.1-0.2-0.2-0.4c-0.2-0.3-0.3-0.4-0.7-0.3C65.8,34.2,65.5,34.4,65.1,34.5z"/>
	<path fill="#FFFFFF" d="M63.2,26.3c0.5-0.2,1-0.4,1.4-0.9c0,0.3-0.2,0.4-0.4,0.5c-0.3,0.2-0.6,0.3-1,0.5c0,0,0,0,0,0.1
		c0.5-0.2,0.9-0.5,1.4-0.7c0,0,0,0,0,0c0,0.1-0.1,0.2-0.1,0.2c-0.2,0.1-0.3,0.2-0.5,0.3c-0.4,0.2-0.7,0.4-1.1,0.6
		c-0.4,0.2-0.7,0.3-1.2,0.3c-0.2,0-0.3,0-0.5-0.1c1-0.1,1.6-0.7,2.3-1.3c-0.1,0-0.1,0.1-0.2,0.1c0.1-0.2,0.1-0.5,0.2-0.7
		c0.1-0.1,0.2-0.2,0.4-0.3c0,0,0,0.1,0.1,0.1c-0.1,0.1-0.2,0.2-0.4,0.3c0,0,0,0,0,0c0.2-0.1,0.3-0.2,0.5-0.3c0,0,0,0,0,0.1
		c-0.1,0.1-0.2,0.1-0.3,0.2c0,0,0,0,0,0c0.1,0,0.2-0.1,0.3-0.1c0,0,0.1,0,0.1,0c0,0,0,0.1,0,0.2c0,0.1-0.1,0.2-0.1,0.2
		c0.1-0.1,0.2-0.2,0.3-0.3c0,0.2-0.1,0.4-0.3,0.5c-0.3,0.2-0.5,0.3-0.8,0.4C63.3,26.2,63.3,26.3,63.2,26.3z M62.1,27
		c0.4,0,0.6-0.2,0.9-0.4C62.7,26.7,62.4,26.8,62.1,27z"/>
	<path fill="#FFFFFF" d="M61.1,25.8c0.3-0.2,0.7-0.5,1.1-0.7c0.1,0,0.2,0,0.3,0.1c0.3,0.4,0.1,1-0.4,1.1
		C61.6,26.4,61.2,26.2,61.1,25.8z M61.9,25.5c0.2,0.1,0.4,0.1,0.5,0c0,0,0-0.1-0.1-0.1C62.1,25.2,62,25.3,61.9,25.5z"/>
	<path fill="#FFFFFF" d="M60.7,26.1c0.1,0.4,0.3,0.6,0.6,0.7c-0.5,0.2-1.2,0.1-1.4-0.2C60.1,26.4,60.4,26.2,60.7,26.1z"/>
	<path fill="#FFFFFF" d="M62.8,26c0.1-0.5,0.1-0.9-0.3-1.2c0.2-0.1,0.3-0.1,0.4,0.1C63.2,25.3,63.2,25.7,62.8,26z"/>
	<path d="M62.1,27c0.3-0.1,0.6-0.2,0.9-0.4C62.7,26.8,62.5,27,62.1,27z"/>
	<path d="M61.9,25.5c0.1-0.2,0.2-0.2,0.4-0.2c0,0,0.1,0.1,0.1,0.1C62.3,25.6,62,25.6,61.9,25.5z"/>
</g>
</svg>
